<svg width="150" height="150" viewBox="0 0 150 150" fill="none" xmlns="http://www.w3.org/2000/svg">
<path d="M60.6597 117.555L59.5647 143.125C59.5647 143.125 47.9397 147.345 45.8297 143.125C44.6847 140.835 45.8297 136.255 51.5547 136.255C54.265 136.213 56.9648 136.6 59.5547 137.4" stroke="#FF6611" stroke-linecap="round" stroke-linejoin="round"/>
<path d="M77.25 121.25L78.215 137.25C78.215 137.25 78.215 142.97 80.495 144.12C82.775 145.27 89.65 145.275 91.945 142.99C91.945 142.99 93.095 139.555 88.52 137.26C86.23 136.115 81.65 136.11 78.215 136.105" stroke="#FF6611" stroke-linecap="round" stroke-linejoin="round"/>
<path d="M42.6904 15.57C42.6904 15.57 43.0004 22.65 45.0554 24.76" stroke="#FF6611" stroke-linecap="round" stroke-linejoin="round"/>
<path d="M49.915 8.10999C49.9375 11.6525 50.2721 15.1862 50.915 18.67" stroke="#FF6611" stroke-linecap="round" stroke-linejoin="round"/>
<path d="M60.3152 5C58.9952 10.765 59.7652 14.56 59.7652 14.56" stroke="#FF6611" stroke-linecap="round" stroke-linejoin="round"/>
<path d="M76.1654 6.19C76.1654 6.19 71.0604 10.145 70.5654 15.545" stroke="#FF6611" stroke-linecap="round" stroke-linejoin="round"/>
<path d="M82.2246 17.315C82.2246 17.315 88.2246 11.395 88.5246 8.78" stroke="#FF6611" stroke-linecap="round" stroke-linejoin="round"/>
<path d="M96.3346 17.57C93.2314 18.5549 90.5596 20.5738 88.7646 23.29" stroke="#FF6611" stroke-linecap="round" stroke-linejoin="round"/>
<path d="M98.1837 51.7042C103.452 36.6112 94.4087 19.7293 77.986 13.9975C61.5633 8.26566 43.9797 15.8544 38.712 30.9474C33.4442 46.0404 42.487 62.9223 58.9097 68.6541C75.3324 74.386 92.916 66.7973 98.1837 51.7042Z" stroke="#FF6611" stroke-linecap="round" stroke-linejoin="round"/>
<path d="M72.9346 31.23L74.0596 39.04" stroke="#FF6611" stroke-linecap="round" stroke-linejoin="round"/>
<path d="M64.5303 29.33L65.9753 39.755" stroke="#FF6611" stroke-linecap="round" stroke-linejoin="round"/>
<path d="M61.2852 45.11C61.2852 45.11 63.7852 51.835 68.8302 52.925C75.0202 54.27 78.3002 52.265 80.0802 47.33" stroke="#FF6611" stroke-linecap="round" stroke-linejoin="round"/>
<path d="M69.7502 117.75L50.2852 117.345L53.9902 66.785" stroke="#FF6611" stroke-linecap="round" stroke-linejoin="round"/>
<path d="M82.3154 68.2L82.7504 78.75" stroke="#FF6611" stroke-linecap="round" stroke-linejoin="round"/>
<path d="M51.8848 100.095L71.2498 100.25" stroke="#FF6611" stroke-linecap="round" stroke-linejoin="round"/>
<path d="M73.7503 88.25C75.1353 81.78 76.1603 77.75 76.1603 77.75L112.79 84.62C112.79 84.62 102.5 123.525 100.2 124.67C97.9003 125.815 70.4353 121.235 69.2903 116.67C68.6603 114.17 70.6953 104.135 72.7503 94.265" stroke="#FF6611" stroke-linecap="round" stroke-linejoin="round"/>
<path d="M92.7549 80.595L110.5 66.29C110.5 66.29 110.5 81.525 110.5 83.79" stroke="#FF6611" stroke-linecap="round" stroke-linejoin="round"/>
<path d="M53.84 67.43C53.84 67.43 43.54 80.025 38.96 92.615C38.96 92.615 59.565 93.76 69.87 90.325M69.87 90.325C69.87 90.325 79.025 84.605 81.315 91.47C82.46 94.905 77.88 96.05 74.45 94.905C72.02 94.095 69.87 91.47 69.87 90.325Z" stroke="#FF6611" stroke-linecap="round" stroke-linejoin="round"/>
<path d="M96.2504 77.75C96.2504 77.75 85.7504 74.43 82.3154 68.705" stroke="#FF6611" stroke-linecap="round" stroke-linejoin="round"/>
</svg>
