<svg width="414" height="335" viewBox="0 0 414 335" fill="none" xmlns="http://www.w3.org/2000/svg">
<path d="M287 110.22C287 110.22 286.38 124.15 282.34 128.3" stroke="#DADADC" stroke-linecap="round" stroke-linejoin="round"/>
<path d="M272.74 95.53L270.77 116.32" stroke="#DADADC" stroke-linecap="round" stroke-linejoin="round"/>
<path d="M252.28 89.4099L253.36 108.23" stroke="#DADADC" stroke-linecap="round" stroke-linejoin="round"/>
<path d="M222.27 87.24C222.27 87.24 231.27 91.75 232.09 110.17" stroke="#DADADC" stroke-linecap="round" stroke-linejoin="round"/>
<path d="M209.15 113.65C209.15 113.65 197.48 105.27 197.48 98.51" stroke="#DADADC" stroke-linecap="round" stroke-linejoin="round"/>
<path d="M181.36 114.16C187.471 116.093 192.734 120.064 196.27 125.41" stroke="#DADADC" stroke-linecap="round" stroke-linejoin="round"/>
<path d="M255.038 214.706C287.367 203.422 305.169 170.189 294.799 140.478C284.429 110.766 249.814 95.8274 217.485 107.111C185.156 118.394 167.355 151.627 177.725 181.339C188.095 211.05 222.709 225.989 255.038 214.706Z" stroke="#DADADC" stroke-linecap="round" stroke-linejoin="round"/>
<path d="M227.43 141.04L225.22 156.42" stroke="#DADADC" stroke-linecap="round" stroke-linejoin="round"/>
<path d="M243.98 137.31L241.13 157.83" stroke="#DADADC" stroke-linecap="round" stroke-linejoin="round"/>
<path d="M248 171.62C248 171.62 245.47 182.12 235.47 183.75C224.33 185.58 216.83 182.45 213.32 172.75" stroke="#DADADC" stroke-linecap="round" stroke-linejoin="round"/>
<path d="M239 232.18L129.78 219.33C129.523 219.302 129.263 219.335 129.022 219.425C128.78 219.516 128.563 219.661 128.388 219.851C128.213 220.041 128.085 220.269 128.014 220.517C127.943 220.765 127.931 221.027 127.98 221.28L141.07 288.93L235.72 297.93L242.12 236.11C242.213 235.178 241.94 234.246 241.357 233.512C240.774 232.778 239.929 232.3 239 232.18Z" stroke="#DADADC" stroke-linecap="round" stroke-linejoin="round"/>
<path d="M217.76 296.82L204.17 316C204.17 316 204.17 327.27 195.17 327.27C189.53 327.27 181.64 320.51 181.64 309.27C181.64 302.51 186.15 295.75 195.17 302.51C199.17 305.51 201.93 309.27 201.93 316.03" stroke="#DADADC" stroke-linecap="round" stroke-linejoin="round"/>
<path d="M161.35 291.18L145.58 300.18C145.58 300.18 145.58 311.45 136.58 311.45C129.46 311.45 123.06 300.18 123.06 293.45C123.06 286.72 129.82 282.18 136.58 286.69C140.78 289.48 145.58 295.69 145.58 302.46" stroke="#DADADC" stroke-linecap="round" stroke-linejoin="round"/>
<path d="M235.79 294.56C235.79 294.56 258.25 288.93 258.25 284.42C258.25 279.91 240.25 275.42 240.25 275.42" stroke="#DADADC" stroke-linecap="round" stroke-linejoin="round"/>
<path d="M244.73 291.18C244.73 291.18 265.01 295.69 265.01 273.18C265.01 273.18 260.51 230.36 251.49 216.84" stroke="#DADADC" stroke-linecap="round" stroke-linejoin="round"/>
<path d="M238 275.41C238 275.41 271.81 261.89 276.31 259.64C279.88 257.85 286.5 256.31 274.06 243.86C262.79 232.59 251.59 215.69 251.59 215.69" stroke="#DADADC" stroke-linecap="round" stroke-linejoin="round"/>
<path d="M177.13 223.58L199.66 210.06" stroke="#DADADC" stroke-linecap="round" stroke-linejoin="round"/>
<path d="M190.65 225.83L199.66 210.06" stroke="#DADADC" stroke-linecap="round" stroke-linejoin="round"/>
<path d="M11.0901 165.23C11.0901 165.23 71.4001 161.59 79.8401 165.23C79.8401 165.23 87.0801 230.76 85.8401 233.23C85.8401 233.23 14.6801 233.23 11.0601 235.66C11.0901 235.62 9.89012 195.57 11.0901 165.23Z" stroke="#0066CC" stroke-linecap="round" stroke-linejoin="round"/>
<path d="M18.54 172.51L37.83 198L51.1 191.93L55.93 211.35L67.99 207.71L78.84 223.48" stroke="#0066CC" stroke-linecap="round" stroke-linejoin="round"/>
<path d="M18.3301 183.44L19.5401 227.12" stroke="#0066CC" stroke-linecap="round" stroke-linejoin="round"/>
<path d="M30.3896 198L31.5996 225.91" stroke="#0066CC" stroke-linecap="round" stroke-linejoin="round"/>
<path d="M41.25 204.07L44.87 225.91" stroke="#0066CC" stroke-linecap="round" stroke-linejoin="round"/>
<path d="M55.7197 216.2V227.12" stroke="#0066CC" stroke-linecap="round" stroke-linejoin="round"/>
<path d="M66.7803 220.04V227.32" stroke="#0066CC" stroke-linecap="round" stroke-linejoin="round"/>
<path d="M136.13 75.4599C136.13 75.4599 135 70.5099 128.99 66.4599C126.34 64.6699 107.87 53.3899 111.91 30.0399C115.51 9.25994 131.73 8.89994 137.59 8.80994C143.59 8.71994 151.65 11.5299 156.89 21.8099C167.16 41.9199 148.63 72.1799 148.63 72.1799C148.63 72.1799 142 75.9999 136.13 75.4599Z" stroke="#FF6611" stroke-linecap="round" stroke-linejoin="round"/>
<path d="M152.82 90.2701C146.39 91.6801 132.82 91.8501 134.59 84.3601C135.74 79.4801 143.84 78.6301 147.44 81.3601C148.53 82.1801 148.91 83.1701 147.95 84.1301C146.99 85.0901 140.67 86.3601 135.36 79.9401C135.36 79.9401 139.27 78.3701 136.36 68.7001C133.45 59.0301 119 40.2301 127.83 34.0001C132.83 30.5101 143.51 41.4201 144.01 51.1701C144.26 56.0401 141.3 58.1701 137.37 55.0701C132.65 51.3801 128.54 39.2901 137.37 32.5501C140.45 30.2101 147.45 34.2901 148.9 43.8801C150.6 55.0701 148.61 63.5501 146.14 68.8801" stroke="#FF6611" stroke-linecap="round" stroke-linejoin="round"/>
<path d="M105.4 57L101.38 59.05" stroke="#FF6611" stroke-linecap="round" stroke-linejoin="round"/>
<path d="M101.1 42.8L93.8301 43.2701" stroke="#FF6611" stroke-linecap="round" stroke-linejoin="round"/>
<path d="M108.31 11.3199L102.51 6.91992" stroke="#FF6611" stroke-linecap="round" stroke-linejoin="round"/>
<path d="M101.17 25.8599L93.4697 22.6899" stroke="#FF6611" stroke-linecap="round" stroke-linejoin="round"/>
<path d="M161.47 13.8299L166.69 10.1499" stroke="#FF6611" stroke-linecap="round" stroke-linejoin="round"/>
<path d="M167.05 30.3201L176.93 28.8301" stroke="#FF6611" stroke-linecap="round" stroke-linejoin="round"/>
<path d="M166.25 44.1299L176.78 46.8699" stroke="#FF6611" stroke-linecap="round" stroke-linejoin="round"/>
<path d="M326.8 46.35C326.8 46.35 383.74 42.55 400.41 43.98C400.41 43.98 403.41 104.29 403.41 114.34C403.41 114.34 356.41 112.63 327.62 115.66C327.65 115.66 325.5 77.2 326.8 46.35Z" stroke="#0066CC" stroke-linecap="round" stroke-linejoin="round"/>
<path d="M371.6 56.98L356.78 102.35" stroke="#0066CC" stroke-linecap="round" stroke-linejoin="round"/>
<path d="M381.96 67.46L395.26 80.57L381.04 92.41" stroke="#0066CC" stroke-linecap="round" stroke-linejoin="round"/>
<path d="M346.09 66.1399L331.35 78.2099L344.5 91.0599" stroke="#0066CC" stroke-linecap="round" stroke-linejoin="round"/>
<path d="M350.81 272.4C350.81 272.4 361.34 270.89 364.35 279.92C367.36 288.95 361.35 291.92 361.35 291.92C361.35 291.92 352.35 297.92 344.8 288.92C344.79 289 337.26 278.42 350.81 272.4Z" stroke="#FF6611" stroke-linecap="round" stroke-linejoin="round"/>
<path d="M340.27 255.84C340.27 255.84 350.55 248.59 360.51 252.42L367.79 242.08L384.64 252.08L377.75 262.8C377.75 262.8 383.92 269.43 385.42 275.45L402 273.9L400.47 292L386.93 290.49C386.93 290.49 386.93 298.02 380.93 302.49L388.45 311.49L373.4 322.03L368.89 313.03C368.89 313.03 359.89 316.03 353.84 316.03C353.84 316.03 355.34 326.56 352.33 328.03C352.33 328.03 337.28 328.03 332.77 325.03L337.28 313.03C332.26 311.708 327.955 308.479 325.28 304.03L313.28 308.54C313.28 308.54 307.28 293.49 307.28 288.98L319.28 285.98C319.28 285.98 319.28 272.44 323.79 267.92L316.27 255.92C316.27 255.92 326.8 243.92 331.32 243.92L340.27 255.84Z" stroke="#FF6611" stroke-linecap="round" stroke-linejoin="round"/>
</svg>
