<svg width="260" height="260" viewBox="0 0 260 260" fill="none" xmlns="http://www.w3.org/2000/svg">
<path d="M143.433 125.233C143.433 125.233 173.645 164.866 166.885 166.305C161.607 167.423 152.264 166.036 146.952 166.877C144.882 167.194 142.916 167.996 141.214 169.217C138.822 170.95 137.011 174.261 137.904 176.826C139.308 180.873 144.759 183.517 148.806 182.113C152.854 180.709 158.21 175.179 149.976 167.189" stroke="#FF6611" stroke-linecap="round" stroke-linejoin="round"/>
<path d="M98.1669 125.797C98.1669 125.797 71.5689 127.53 48.8969 103.437C29.1629 82.4547 50.0495 77.688 55.8302 87.776C57.7455 91.104 59.5395 97.1274 50.6302 104.433" stroke="#FF6611" stroke-linecap="round" stroke-linejoin="round"/>
<path d="M132.08 200.495L137.8 247.867C137.8 247.867 157.733 253.561 160.741 246.272C162.387 242.311 159.943 234.797 150.384 235.465C145.835 235.717 141.354 236.685 137.107 238.333" stroke="#FF6611" stroke-linecap="round" stroke-linejoin="round"/>
<path d="M107.9 199.767L103.289 238.957C103.289 238.957 102.96 248.491 99.0687 250.311C95.1773 252.131 83.6853 251.715 80.002 247.754C80.002 247.754 78.2687 241.947 86.0687 238.368C89.96 236.583 97.6213 236.843 103.402 237.042" stroke="#FF6611" stroke-linecap="round" stroke-linejoin="round"/>
<path d="M147.732 166.66C144.327 149.897 142.873 132.797 143.399 115.7" stroke="#FF6611" stroke-linecap="round" stroke-linejoin="round"/>
<path d="M100.1 117.433C91.4943 169.338 91.9796 199.073 91.9796 199.073L153.149 200.105L149.934 182" stroke="#FF6611" stroke-linecap="round" stroke-linejoin="round"/>
<path d="M143.434 115.7C143.434 115.7 176.324 152.967 219.406 163.046C219.406 163.046 219.986 187.313 198.606 191.646C183.11 194.723 187.339 184.167 173.022 184.054C160.212 183.95 152.118 195.477 152.118 195.477" stroke="#FF6611" stroke-linecap="round" stroke-linejoin="round"/>
<path d="M167.189 33.8C167.102 34.3547 166.504 40.1007 162.977 43.2207" stroke="#FF6611" stroke-linecap="round" stroke-linejoin="round"/>
<path d="M153.409 17.3333L151.034 34.9266" stroke="#FF6611" stroke-linecap="round" stroke-linejoin="round"/>
<path d="M136.223 11.4399L136.517 27.4733" stroke="#FF6611" stroke-linecap="round" stroke-linejoin="round"/>
<path d="M112.562 8.66675C112.562 8.66675 117.91 19.3354 118.378 28.4007" stroke="#FF6611" stroke-linecap="round" stroke-linejoin="round"/>
<path d="M98.8004 30.5934C98.8004 30.5934 91.503 21.8054 91.165 17.4114" stroke="#FF6611" stroke-linecap="round" stroke-linejoin="round"/>
<path d="M75.209 32.1274C77.7384 32.3968 80.167 33.2663 82.2925 34.6637C84.418 36.0612 86.179 37.946 87.429 40.1614" stroke="#FF6611" stroke-linecap="round" stroke-linejoin="round"/>
<path d="M135.902 118.072C163.753 109.568 179.997 81.9288 172.183 56.3388C164.369 30.7489 135.457 16.8983 107.605 25.4027C79.7538 33.9071 63.5102 61.546 71.324 87.136C79.1379 112.726 108.05 126.577 135.902 118.072Z" stroke="#FF6611" stroke-linecap="round" stroke-linejoin="round"/>
<path d="M115.978 45.7686L115.492 58.9679" stroke="#FF6611" stroke-linecap="round" stroke-linejoin="round"/>
<path d="M129.098 43.4634L129.072 58.734" stroke="#FF6611" stroke-linecap="round" stroke-linejoin="round"/>
<path d="M97.0667 67.9986L146.995 66.1353C146.995 66.1353 149.595 88.2873 134.307 96.3126C120.631 103.497 108.827 99.1466 103.671 95.1079C98.176 90.7746 94.6227 81.3279 97.0667 67.9986Z" stroke="#FF6611" stroke-linecap="round" stroke-linejoin="round"/>
<path d="M125.234 120.9C125.234 120.9 123.5 152.75 130.685 177.095L119.938 191.117L107.614 176.445C107.614 176.445 111.012 140.348 115.7 120.9" stroke="#FF6611" stroke-linecap="round" stroke-linejoin="round"/>
</svg>
