<svg width="150" height="150" viewBox="0 0 150 150" fill="none" xmlns="http://www.w3.org/2000/svg">
<path d="M65.21 64.895C65.21 64.895 78.71 77.47 80.885 79.855C91.675 91.585 80.945 94.12 77.455 88.7C76.31 86.915 75.035 83.46 79.745 79.2" stroke="#0066CC" stroke-linecap="round" stroke-linejoin="round"/>
<path d="M46.1299 75.5C46.1299 75.5 53.5499 89.28 61.0999 94.61C74.0999 103.795 75.3149 93.455 69.5999 90.44C67.7249 89.44 64.0999 88.62 60.2499 93.675" stroke="#0066CC" stroke-linecap="round" stroke-linejoin="round"/>
<path d="M45.2745 109.655L43.9995 134.86C43.9995 134.86 33.2295 138.77 31.2795 134.86C30.2195 132.74 31.2795 128.5 36.5795 128.5C39.0933 128.46 41.5974 128.818 43.9995 129.56" stroke="#0066CC" stroke-linecap="round" stroke-linejoin="round"/>
<path d="M59.9102 109.42L62.4102 128.8C62.4102 128.8 62.6902 134.09 64.8602 135.04C67.0302 135.99 73.3852 135.65 75.3902 133.425C75.3902 133.425 76.2852 130.19 71.9352 128.295C69.7652 127.35 65.5302 127.575 62.3552 127.74" stroke="#0066CC" stroke-linecap="round" stroke-linejoin="round"/>
<path d="M28.3799 15.8101C28.3799 15.8101 28.6749 22.3651 30.5749 24.3101" stroke="#0066CC" stroke-linecap="round" stroke-linejoin="round"/>
<path d="M35.0701 8.90002C33.9401 12.42 36.0001 18.68 36.0001 18.68" stroke="#0066CC" stroke-linecap="round" stroke-linejoin="round"/>
<path d="M44.6998 6C43.9745 8.89347 43.8048 11.8983 44.1998 14.855" stroke="#0066CC" stroke-linecap="round" stroke-linejoin="round"/>
<path d="M57.2604 5C57.2604 5 51.9604 9.24 54.1954 15.785" stroke="#0066CC" stroke-linecap="round" stroke-linejoin="round"/>
<path d="M65 17.425C65 17.425 70.55 11.925 70.835 9.52002" stroke="#0066CC" stroke-linecap="round" stroke-linejoin="round"/>
<path d="M78.0596 17.66C75.1908 18.5753 72.7209 20.4435 71.0596 22.955" stroke="#0066CC" stroke-linecap="round" stroke-linejoin="round"/>
<path d="M79.7683 49.2722C84.6466 35.295 76.2729 19.6615 61.0652 14.3537C45.8575 9.04589 29.5745 16.0738 24.6962 30.0509C19.8179 44.0281 28.1916 59.6616 43.3993 64.9694C58.607 70.2772 74.89 63.2493 79.7683 49.2722Z" stroke="#0066CC" stroke-linecap="round" stroke-linejoin="round"/>
<path d="M56.3896 30.3101L57.4296 37.5451" stroke="#0066CC" stroke-linecap="round" stroke-linejoin="round"/>
<path d="M48.7803 29.38L49.9453 38.205" stroke="#0066CC" stroke-linecap="round" stroke-linejoin="round"/>
<path d="M46.6953 44.6949C46.6953 44.6949 48.7803 49.5249 52.5853 50.3999C57.7603 51.5949 61.3553 49.7899 63.0053 45.2149" stroke="#0066CC" stroke-linecap="round" stroke-linejoin="round"/>
<path d="M67.2552 98.17L68.2502 108.745L35.4102 110.055L38.8452 63.235" stroke="#0066CC" stroke-linecap="round" stroke-linejoin="round"/>
<path d="M64.7598 64.6949L66.7548 89.6749" stroke="#0066CC" stroke-linecap="round" stroke-linejoin="round"/>
<path d="M36.8945 94.08L60.9695 94.575" stroke="#0066CC" stroke-linecap="round" stroke-linejoin="round"/>
<path d="M53.5498 94.63L54.7698 109.16" stroke="#0066CC" stroke-linecap="round" stroke-linejoin="round"/>
<path d="M99.1346 97.755L75.8096 110.5L99.1346 127.46C99.1346 127.46 102.315 131.7 108.675 127.46L126.675 115.8L99.1346 97.755Z" stroke="#0066CC" stroke-linecap="round" stroke-linejoin="round"/>
<path d="M76.75 111.155C76.75 111.155 83.25 127.44 94.89 134.86C106.53 142.28 124.675 123.395 126.205 116.15" stroke="#0066CC" stroke-linecap="round" stroke-linejoin="round"/>
<path d="M104.315 129.325C104.315 129.325 101.59 135.135 95.2305 135.135" stroke="#0066CC" stroke-linecap="round" stroke-linejoin="round"/>
<path d="M113.715 131.64C113.715 131.64 117.715 141.64 110.795 144.4C102.68 147.65 100.23 136.635 100.23 136.635" stroke="#0066CC" stroke-linecap="round" stroke-linejoin="round"/>
<path d="M83.2305 114.72C83.2305 114.72 83.3605 110.51 87.4705 111.54C91.7105 112.6 94.8905 110.48 93.8305 106.235C93.2555 103.94 97.0105 100.935 100.195 104.115C102.565 106.49 106.555 103.055 105.495 109.42C104.97 112.555 110.795 111.54 110.795 111.54C110.795 111.54 115.035 110.48 115.035 113.66C115.035 116.84 115.91 118.26 117.155 118.96C118.105 119.49 119.72 119.575 121.395 117.9" stroke="#0066CC" stroke-linecap="round" stroke-linejoin="round"/>
<path d="M108.675 123.2C108.675 123.2 110.795 117.9 105.495 120.02C105.495 120.02 106.555 113.66 101.255 116.84C101.255 116.84 100.195 108.34 93.8301 115.78" stroke="#0066CC" stroke-linecap="round" stroke-linejoin="round"/>
<path d="M78.2449 108.66L70.2549 98.665" stroke="#0066CC" stroke-linecap="round" stroke-linejoin="round"/>
<path d="M95.7296 99.665L85.3496 90.335" stroke="#0066CC" stroke-linecap="round" stroke-linejoin="round"/>
<path d="M103.725 136.265C103.725 136.265 104.9 141.37 108.115 140.655C111.41 139.925 111.41 136.995 110.31 133.7" stroke="#0066CC" stroke-linecap="round" stroke-linejoin="round"/>
</svg>
