<svg width="150" height="150" viewBox="0 0 150 150" fill="none" xmlns="http://www.w3.org/2000/svg">
<path d="M49.1354 66.1949C40.5854 73.1949 40.9854 73.6549 36.9304 77.9449C35.5404 79.4149 33.4304 82.445 35.6354 85.91C37.3654 88.62 41.8154 94.8599 43.6804 97.4599C44.4132 98.4711 44.8964 99.6413 45.0904 100.875C45.3604 102.615 44.7104 104.765 43.2554 105.46C40.9504 106.555 37.5504 105.35 36.4504 103.045C35.3504 100.74 35.4504 96.1799 42.2854 96.3099" stroke="#0066CC" stroke-linecap="round" stroke-linejoin="round"/>
<path d="M76.5996 68.08C76.5996 68.08 86.7846 83.29 106.415 84.975C123.505 86.44 118.015 74.925 111.15 75.935C108.89 76.265 105.425 76.965 105.295 83.81" stroke="#0066CC" stroke-linecap="round" stroke-linejoin="round"/>
<path d="M105.115 67.6801L105.4 123.7" stroke="#0066CC" stroke-linecap="round" stroke-linejoin="round"/>
<path d="M114.45 117.87C114.45 117.87 105.425 123.74 96.1748 117.06C96.1748 117.06 94.1748 133.06 104.53 137.45C104.53 137.45 114.8 137.265 114.45 117.87Z" stroke="#0066CC" stroke-linecap="round" stroke-linejoin="round"/>
<path d="M54.6051 116.345L52.8051 143.305C52.8051 143.305 41.1401 147.305 39.1151 143.04C38.0151 140.74 39.2451 136.195 44.9501 136.305C47.6569 136.312 50.3453 136.749 52.9151 137.6" stroke="#0066CC" stroke-linecap="round" stroke-linejoin="round"/>
<path d="M71.1699 116.16L72.7349 137.16C72.7349 137.16 72.9249 142.865 75.2349 143.925C77.5449 144.985 84.3949 144.76 86.5999 142.425C86.5999 142.425 87.6249 138.965 82.9849 136.835C80.6649 135.775 76.1049 135.925 72.6849 136.04" stroke="#0066CC" stroke-linecap="round" stroke-linejoin="round"/>
<path d="M38.3945 14.855C38.3945 14.855 38.5745 21.915 40.5795 24.06" stroke="#0066CC" stroke-linecap="round" stroke-linejoin="round"/>
<path d="M46.7951 9.08496C46.0742 12.033 45.9855 15.1002 46.5351 18.085" stroke="#0066CC" stroke-linecap="round" stroke-linejoin="round"/>
<path d="M57.1297 5.85999L55.4297 14.175" stroke="#0066CC" stroke-linecap="round" stroke-linejoin="round"/>
<path d="M72.0003 5C72.0003 5 66.7853 10 66.1953 15.36" stroke="#0066CC" stroke-linecap="round" stroke-linejoin="round"/>
<path d="M77.7598 17.345C77.7598 17.345 81.7598 14.64 82.1198 12.04" stroke="#0066CC" stroke-linecap="round" stroke-linejoin="round"/>
<path d="M91.0949 20.2C91.0949 20.2 87.2199 18.96 84.1699 23.425" stroke="#0066CC" stroke-linecap="round" stroke-linejoin="round"/>
<path d="M92.7808 51.921C98.3165 36.9801 89.6236 19.9847 73.3647 13.9607C57.1059 7.93667 39.4379 15.1652 33.9022 30.1061C28.3665 45.047 37.0593 62.0424 53.3182 68.0664C69.5771 74.0904 87.2451 66.8619 92.7808 51.921Z" stroke="#0066CC" stroke-linecap="round" stroke-linejoin="round"/>
<path d="M76.6046 68.08L79.4246 115.69L44.0596 116.43L49.0246 66.55" stroke="#0066CC" stroke-linecap="round" stroke-linejoin="round"/>
<path d="M45.9854 99.27L77.9753 100.885" stroke="#0066CC" stroke-linecap="round" stroke-linejoin="round"/>
<path d="M59.8999 100.125L59.6299 115.94" stroke="#0066CC" stroke-linecap="round" stroke-linejoin="round"/>
<path d="M59.4698 29.65L59.2998 37.515" stroke="#0066CC" stroke-linecap="round" stroke-linejoin="round"/>
<path d="M67.6949 28.145L67.3799 37.255" stroke="#0066CC" stroke-linecap="round" stroke-linejoin="round"/>
<path d="M51.8652 44.205C51.8652 44.205 54.5702 53.175 62.5252 53.9C73.3502 54.9 74.6852 44.64 74.6852 44.64" stroke="#0066CC" stroke-linecap="round" stroke-linejoin="round"/>
</svg>
