<svg width="150" height="150" viewBox="0 0 150 150" fill="none" xmlns="http://www.w3.org/2000/svg">
<path d="M94.2598 67.54C94.2598 67.54 97.7048 79.175 115.2 83.31" stroke="#FF6611" stroke-linecap="round" stroke-linejoin="round"/>
<path d="M67.78 65.85C67.78 65.85 65.28 77.5 47.23 84.705C45.8571 85.2664 44.4429 85.7211 43 86.065" stroke="#FF6611" stroke-linecap="round" stroke-linejoin="round"/>
<path d="M74.5454 116.555L72.8554 143.055C72.8554 143.055 61.4104 147.21 59.3304 143.055C58.2054 140.8 59.3304 136.295 64.9654 136.295C67.6382 136.253 70.3008 136.633 72.8554 137.42" stroke="#FF6611" stroke-linecap="round" stroke-linejoin="round"/>
<path d="M90.5254 115.54L92.4104 137.84C92.4104 137.84 92.7104 143.465 95.0204 144.47C97.3304 145.475 104.08 145.125 106.21 142.755C106.21 142.755 107.16 139.32 102.54 137.305C100.23 136.305 95.7304 136.535 92.3554 136.715" stroke="#FF6611" stroke-linecap="round" stroke-linejoin="round"/>
<path d="M94.2998 67.7L98.6198 115.275L63.7148 116.67L67.7798 65.845" stroke="#FF6611" stroke-linecap="round" stroke-linejoin="round"/>
<path d="M65.29 99.69L96.91 100.68" stroke="#FF6611" stroke-linecap="round" stroke-linejoin="round"/>
<path d="M78.5654 100.29L80.2004 116.045" stroke="#FF6611" stroke-linecap="round" stroke-linejoin="round"/>
<path d="M56.7197 16.035C56.7197 16.035 57.2197 22.99 59.2947 25.035" stroke="#FF6611" stroke-linecap="round" stroke-linejoin="round"/>
<path d="M63.6299 8.5L64.8999 18.865" stroke="#FF6611" stroke-linecap="round" stroke-linejoin="round"/>
<path d="M73.7801 5.16L73.4951 14.585" stroke="#FF6611" stroke-linecap="round" stroke-linejoin="round"/>
<path d="M88.0654 5C88.0654 5 84.5004 9.935 84.1504 15.265" stroke="#FF6611" stroke-linecap="round" stroke-linejoin="round"/>
<path d="M95.6699 16.69C95.6699 16.69 101.405 10.69 101.64 8.125" stroke="#FF6611" stroke-linecap="round" stroke-linejoin="round"/>
<path d="M109.56 16.565C106.534 17.6187 103.96 19.6759 102.265 22.395" stroke="#FF6611" stroke-linecap="round" stroke-linejoin="round"/>
<path d="M111.402 50.1311C116.181 35.1397 106.829 18.771 90.5144 13.5705C74.1996 8.37007 57.1 16.3072 52.3214 31.2986C47.5428 46.29 56.8947 62.6588 73.2095 67.8592C89.5243 73.0596 106.624 65.1225 111.402 50.1311Z" stroke="#FF6611" stroke-linecap="round" stroke-linejoin="round"/>
<path d="M85.7354 30.44L85.8454 38.21" stroke="#FF6611" stroke-linecap="round" stroke-linejoin="round"/>
<path d="M78.0502 28.915L77.8652 37.89" stroke="#FF6611" stroke-linecap="round" stroke-linejoin="round"/>
<path d="M70.5752 42.67C70.5752 42.67 74.2302 52.715 82.1152 52.5C92.2552 52.225 93.1152 43.185 93.1152 43.185" stroke="#FF6611" stroke-linecap="round" stroke-linejoin="round"/>
<path d="M48.9398 100.205C44.9398 105.16 37.3198 108.23 28.8848 103.45C28.8848 103.45 20.4498 98.675 23.9898 89.24C27.5298 79.805 35.5948 76.37 40.9898 78.385C45.7098 80.155 41.6998 85.11 43.0548 87.23C43.0548 87.23 44.4098 89.355 49.0098 90.005C53.6098 90.655 50.5248 98.25 48.9398 100.205Z" stroke="#FF6611" stroke-linecap="round" stroke-linejoin="round"/>
<path d="M34.4549 87.375C36.9199 89.95 31.9999 95.1 29.4999 91.24C27.3549 87.85 31.9999 84.8 34.4549 87.375Z" stroke="#FF6611" stroke-linecap="round" stroke-linejoin="round"/>
<path d="M37.2454 98.37C38.7154 99.845 35.7754 102.785 34.3054 100.58C33.0004 98.645 35.7754 96.9 37.2454 98.37Z" stroke="#FF6611" stroke-linecap="round" stroke-linejoin="round"/>
<path d="M42.625 93.5C43.76 93.195 44.335 95.5 42.845 95.575C41.535 95.64 41.5 93.79 42.625 93.5Z" stroke="#FF6611" stroke-linecap="round" stroke-linejoin="round"/>
<path d="M125.89 54.5C125.89 54.5 130.635 78.205 119.32 73.82C105.5 68.465 125.89 54.5 125.89 54.5Z" stroke="#FF6611" stroke-linecap="round" stroke-linejoin="round"/>
<path d="M125.89 54.5C125.89 54.5 126.78 64.17 121.02 66.115C113.45 68.675 119.32 73.82 119.32 73.82" stroke="#FF6611" stroke-linecap="round" stroke-linejoin="round"/>
<path d="M126.78 65.685C126.78 65.685 125.78 68.185 123.78 68.185C118.43 68.185 120.78 74.23 120.78 74.23" stroke="#FF6611" stroke-linecap="round" stroke-linejoin="round"/>
<path d="M121.24 74.75C121.24 74.75 118.32 93.25 114.785 100.75C114.692 100.947 114.531 101.104 114.333 101.194C114.134 101.283 113.91 101.3 113.701 101.24C113.491 101.18 113.31 101.047 113.189 100.866C113.068 100.685 113.015 100.466 113.04 100.25C113.865 93.46 115.645 80.35 117.215 73.25" stroke="#FF6611" stroke-linecap="round" stroke-linejoin="round"/>
</svg>
