<svg width="150" height="150" viewBox="0 0 150 150" fill="none" xmlns="http://www.w3.org/2000/svg">
<path d="M75.9453 67C75.9453 67 82.3203 77.75 93.8203 82.75" stroke="#0066CC" stroke-linecap="round" stroke-linejoin="round"/>
<path d="M48.8201 66.25C48.8201 66.25 48.4051 73.11 29.9601 79.25C13.8951 84.63 16.5001 72.31 23.3201 71.69C25.5651 71.485 29.0551 71.355 30.7651 77.895" stroke="#0066CC" stroke-linecap="round" stroke-linejoin="round"/>
<path d="M55.1098 116.545L53.9798 143.045C53.9798 143.045 42.5398 147.2 40.4798 143.045C39.3548 140.79 40.4798 136.285 46.1148 136.285C48.7854 136.24 51.4464 136.616 53.9998 137.4" stroke="#0066CC" stroke-linecap="round" stroke-linejoin="round"/>
<path d="M71.2246 115.54L73.5296 137.84C73.5296 137.84 73.8296 143.465 76.1346 144.47C78.4396 145.475 85.1946 145.125 87.3246 142.755C87.3246 142.755 88.2746 139.32 83.6546 137.305C81.3496 136.305 76.8496 136.54 73.4746 136.715" stroke="#0066CC" stroke-linecap="round" stroke-linejoin="round"/>
<path d="M36.5 18.56C36.5 18.56 37.56 22.365 39.58 24.445" stroke="#0066CC" stroke-linecap="round" stroke-linejoin="round"/>
<path d="M44.4053 10.675L45.3703 18.455" stroke="#0066CC" stroke-linecap="round" stroke-linejoin="round"/>
<path d="M54.6153 5L54.0703 14.41" stroke="#0066CC" stroke-linecap="round" stroke-linejoin="round"/>
<path d="M68.0601 5.04498C68.0601 5.04498 65.1851 10.045 64.7051 15.38" stroke="#0066CC" stroke-linecap="round" stroke-linejoin="round"/>
<path d="M74.8203 18.56C74.8203 18.56 81.2753 13.25 81.5753 10.675" stroke="#0066CC" stroke-linecap="round" stroke-linejoin="round"/>
<path d="M90.0603 17.37C87.0059 18.3388 84.3762 20.326 82.6104 23" stroke="#0066CC" stroke-linecap="round" stroke-linejoin="round"/>
<path d="M90.9799 50.9622C96.1631 36.1117 87.263 19.5001 71.101 13.8593C54.939 8.21841 37.6354 15.6844 32.4523 30.5349C27.2691 45.3854 36.1692 61.997 52.3312 67.6378C68.4932 73.2787 85.7968 65.8128 90.9799 50.9622Z" stroke="#0066CC" stroke-linecap="round" stroke-linejoin="round"/>
<path d="M75.9447 67L79.7347 115.285L44.8447 116.675L49.0697 66.69" stroke="#0066CC" stroke-linecap="round" stroke-linejoin="round"/>
<path d="M46.4199 99.705L78.0249 100.695" stroke="#0066CC" stroke-linecap="round" stroke-linejoin="round"/>
<path d="M59.375 100.34L61.155 116.045" stroke="#0066CC" stroke-linecap="round" stroke-linejoin="round"/>
<path d="M23.1298 51.555C19.3448 52.5 18.4998 63.185 24.9998 64.835C27.0598 65.335 30.6398 63.105 29.4998 56.79C29.4998 56.79 27.9998 50.355 23.1298 51.555Z" stroke="#0066CC" stroke-miterlimit="10" stroke-linecap="round"/>
<path d="M26.8555 65.04C26.8555 65.04 29.3955 75.735 33.4255 82.5" stroke="#0066CC" stroke-miterlimit="10" stroke-linecap="round"/>
<path d="M100.91 74.935L87.4404 84.58" stroke="#0066CC" stroke-linecap="round" stroke-linejoin="round"/>
<path d="M130.09 50.915C124.025 50.96 114.38 58.305 102.405 69.11C100.535 70.8 95.4052 76.85 105.37 73.9C117.68 70.25 135.125 50.875 130.09 50.915Z" stroke="#0066CC" stroke-linecap="round" stroke-linejoin="round"/>
<path d="M130.795 52.555C130.795 52.555 135.485 58.26 126.44 66.42C122.7 69.795 113.905 75.38 108.745 77.64C107.285 78.28 104.365 79.555 101.405 74.695" stroke="#0066CC" stroke-linecap="round" stroke-linejoin="round"/>
<path d="M108.305 32.5C108.305 32.5 97.8045 38.26 108.67 44.63C108.67 44.63 111.46 46.845 109.53 52.13C109.53 52.13 108.37 55.305 111.53 56.465" stroke="#0066CC" stroke-linecap="round" stroke-linejoin="round"/>
<path d="M115.9 41.025C115.9 41.025 112.235 44.485 114.64 47.76C117.045 51.035 118.485 50.365 116.94 54.595" stroke="#0066CC" stroke-linecap="round" stroke-linejoin="round"/>
<path d="M104.625 49.135C104.625 49.135 100.575 53.635 105.095 57.7" stroke="#0066CC" stroke-linecap="round" stroke-linejoin="round"/>
<path d="M66.4697 30.64L67.5897 38.455" stroke="#0066CC" stroke-linecap="round" stroke-linejoin="round"/>
<path d="M58.0596 28.745L59.5096 39.17" stroke="#0066CC" stroke-linecap="round" stroke-linejoin="round"/>
<path d="M54.8154 44.525C54.8154 44.525 57.3154 51.25 62.3604 52.34C68.5554 53.68 71.8304 51.68 73.6154 46.74" stroke="#0066CC" stroke-linecap="round" stroke-linejoin="round"/>
</svg>
