<svg width="150" height="150" viewBox="0 0 150 150" fill="none" xmlns="http://www.w3.org/2000/svg">
<path d="M32.3897 53.7C33.5247 53.39 34.0997 55.675 32.6097 55.77C31.2997 55.855 31.2497 54 32.3897 53.7Z" stroke="#FF6611" stroke-linecap="round" stroke-linejoin="round"/>
<path d="M33.9004 61.25C35.0354 60.945 35.6154 63.25 34.1204 63.325C32.8104 63.41 32.7604 61.56 33.9004 61.25Z" stroke="#FF6611" stroke-linecap="round" stroke-linejoin="round"/>
<path d="M29.7401 58.39C30.7401 58.115 31.2651 60.15 29.9351 60.235C28.7701 60.31 28.7251 58.66 29.7401 58.39Z" stroke="#FF6611" stroke-linecap="round" stroke-linejoin="round"/>
<path d="M87.2949 68.04C87.2949 68.04 91.8599 80.15 109.495 84.315" stroke="#FF6611" stroke-linecap="round" stroke-linejoin="round"/>
<path d="M60.5998 66.34C60.5998 66.34 57.9398 77.915 39.1448 83.49C37.2329 83.9457 35.294 84.2797 33.3398 84.49" stroke="#FF6611" stroke-linecap="round" stroke-linejoin="round"/>
<path d="M67.1945 117.05L65.6945 143.14C65.6945 143.14 54.1545 147.325 52.0595 143.14C50.9245 140.865 52.0595 136.325 57.7395 136.325C60.4344 136.282 63.1191 136.666 65.6945 137.46" stroke="#FF6611" stroke-linecap="round" stroke-linejoin="round"/>
<path d="M83.3096 116.545L85.4296 137.78C85.4296 137.78 85.7296 143.45 88.0546 144.465C90.3796 145.48 97.1896 145.125 99.3396 142.735C99.3396 142.735 100.295 139.275 95.6396 137.235C93.3096 136.235 88.7746 136.455 85.3696 136.635" stroke="#FF6611" stroke-linecap="round" stroke-linejoin="round"/>
<path d="M87.34 68.2L91.685 116.16L56.5 117.565L60.6 66.34" stroke="#FF6611" stroke-linecap="round" stroke-linejoin="round"/>
<path d="M58.0898 100.45L89.9598 101.45" stroke="#FF6611" stroke-linecap="round" stroke-linejoin="round"/>
<path d="M75.7002 101.09L77.7702 116.545" stroke="#FF6611" stroke-linecap="round" stroke-linejoin="round"/>
<path d="M49.4502 16.125C49.4502 16.125 49.9502 23.125 52.0452 25.175" stroke="#FF6611" stroke-linecap="round" stroke-linejoin="round"/>
<path d="M56.415 8.53L57.695 18.975" stroke="#FF6611" stroke-linecap="round" stroke-linejoin="round"/>
<path d="M66.6453 5.16L66.3604 14.66" stroke="#FF6611" stroke-linecap="round" stroke-linejoin="round"/>
<path d="M82.1846 5C82.1846 5 77.4446 10 77.0996 15.345" stroke="#FF6611" stroke-linecap="round" stroke-linejoin="round"/>
<path d="M88.71 16.785C88.71 16.785 94.5 10.75 94.73 8.14999" stroke="#FF6611" stroke-linecap="round" stroke-linejoin="round"/>
<path d="M102.715 16.66C99.665 17.7193 97.0706 19.7931 95.3652 22.535" stroke="#FF6611" stroke-linecap="round" stroke-linejoin="round"/>
<path d="M104.571 50.4914C109.388 35.3789 99.9607 18.8781 83.5143 13.6357C67.068 8.39336 49.8305 16.3946 45.0133 31.5071C40.1961 46.6195 49.6234 63.1203 66.0698 68.3627C82.5161 73.6051 99.7536 65.6038 104.571 50.4914Z" stroke="#FF6611" stroke-linecap="round" stroke-linejoin="round"/>
<path d="M78.6953 30.71L78.8103 38.54" stroke="#FF6611" stroke-linecap="round" stroke-linejoin="round"/>
<path d="M70.9547 29.17L70.7646 38.22" stroke="#FF6611" stroke-linecap="round" stroke-linejoin="round"/>
<path d="M63.4199 43.04C63.4199 43.04 67.1049 53.165 75.0499 52.95C85.2699 52.67 86.1599 43.555 86.1599 43.555" stroke="#FF6611" stroke-linecap="round" stroke-linejoin="round"/>
<path d="M108.23 67.5C107.91 66.04 107.985 66.175 110 66.175C111.045 66.175 113.05 65.175 113.255 65.63C115.035 69.7 115.5 76.235 115.645 81.33C115.694 83.0245 116.324 84.6506 117.43 85.935C120.665 89.685 127.215 97.63 126.265 99.3C125.22 101.145 110.68 103.855 104.665 102.66C104.314 102.59 103.981 102.449 103.685 102.248C103.389 102.047 103.136 101.788 102.942 101.487C102.748 101.187 102.616 100.85 102.553 100.498C102.491 100.145 102.5 99.7839 102.58 99.435C103.483 95.3479 105.686 91.6637 108.86 88.935C109.155 88.6799 109.39 88.3621 109.546 88.0048C109.703 87.6476 109.778 87.2599 109.765 86.87C109.695 83.21 109.39 72.835 108.23 67.5Z" stroke="#FF6611" stroke-linecap="round" stroke-linejoin="round"/>
<path d="M106.085 93.695L114.085 92.98" stroke="#FF6611" stroke-linecap="round" stroke-linejoin="round"/>
<path d="M103.58 98.115L111.58 97.4" stroke="#FF6611" stroke-linecap="round" stroke-linejoin="round"/>
<path d="M107.5 66.185C107.5 66.185 111.34 66.065 114.05 65.185" stroke="#FF6611" stroke-linecap="round" stroke-linejoin="round"/>
<path d="M35.9697 66.69C34.4697 63.69 27.0947 64.635 27.0947 64.635C27.0947 64.635 24.8197 65.77 27.0947 66.905C27.0947 66.905 24.0947 81.33 23.6847 86.215C23.5197 88.115 23.6847 91.895 27.0947 93.03C30.5047 94.165 32.3447 89.315 32.7697 87.35C33.9197 82.05 34.9647 65.685 34.9647 65.685" stroke="#FF6611" stroke-linecap="round" stroke-linejoin="round"/>
<path d="M29.3653 83.945L24.8203 82.81" stroke="#FF6611" stroke-linecap="round" stroke-linejoin="round"/>
<path d="M33.3946 79.915L28.8496 78.78" stroke="#FF6611" stroke-linecap="round" stroke-linejoin="round"/>
<path d="M27.0946 88.485L23.6846 87.35" stroke="#FF6611" stroke-linecap="round" stroke-linejoin="round"/>
</svg>
