<svg width="186" height="60" viewBox="0 0 186 60" fill="none" xmlns="http://www.w3.org/2000/svg">
<g clip-path="url(#clip0_112_2231)">
<path d="M60.0002 17.08V42.9133C60.0002 45.5733 59.3935 48.0933 58.3002 50.34L48.7535 40.7933V17.08C48.7535 13.86 46.1402 11.2467 42.9202 11.2467H19.2068L9.66016 1.7C11.9068 0.613333 14.4268 0 17.0868 0H42.9202C52.3402 0 60.0002 7.66 60.0002 17.08Z" fill="#0066CC"/>
<path d="M50.3467 58.3C48.1 59.3867 45.58 60 42.92 60H17.0867C7.66667 60 0 52.3333 0 42.9133V17.08C0 14.42 0.613333 11.9 1.70667 9.65332L11.2533 19.2067V42.9133C11.2533 46.14 13.8667 48.7467 17.0867 48.7467H40.8L50.3467 58.3Z" fill="#FF6611"/>
<path d="M85.7929 18.0934C87.8329 16.8734 90.1529 16.26 92.7529 16.26C95.1929 16.26 97.3996 16.74 99.3796 17.7C101.36 18.66 103.186 20.36 104.873 22.8L111.473 20.58C109.673 17.14 107.273 14.44 104.273 12.48C101.273 10.52 97.4329 9.54004 92.7529 9.54004C89.7529 9.54004 86.9929 10.06 84.4729 11.1C81.9529 12.14 79.7662 13.6 77.9062 15.48C76.0462 17.36 74.6062 19.5934 73.5862 22.1734C72.5662 24.7534 72.0596 27.5667 72.0596 30.6067C72.0596 34.6467 72.9062 38.2534 74.6129 41.4334C76.3129 44.6134 78.7262 47.1134 81.8396 48.9334C84.9596 50.7534 88.5996 51.6667 92.7596 51.6667C97.4396 51.6667 101.28 50.6867 104.28 48.7267C107.28 46.7667 109.68 44.0667 111.48 40.6267L104.88 38.4067C103.2 40.8467 101.366 42.5467 99.3862 43.5067C97.4062 44.4667 95.1929 44.9467 92.7596 44.9467C90.1596 44.9467 87.8396 44.34 85.7996 43.1134C83.7596 41.8934 82.1396 40.2 80.9396 38.04C79.7396 35.88 79.1396 33.4 79.1396 30.6C79.1396 27.8 79.7396 25.32 80.9396 23.16C82.1396 21 83.7596 19.3134 85.7996 18.0867L85.7929 18.0934Z" fill="#DADADC"/>
<path d="M154.554 29.6401H134.574V36.0601H147.847C147.54 37.1534 147.087 38.1734 146.48 39.1201C145.3 40.9601 143.707 42.4134 141.707 43.4734C139.707 44.5334 137.467 45.0601 134.987 45.0601C132.507 45.0601 130.127 44.4401 128.087 43.2001C126.047 41.9601 124.427 40.2601 123.227 38.1001C122.027 35.9401 121.427 33.4801 121.427 30.7201C121.427 27.9601 122.027 25.3201 123.227 23.1601C124.427 21.0001 126.047 19.3134 128.087 18.0868C130.127 16.8668 132.447 16.2534 135.047 16.2534C137.447 16.2534 139.634 16.7134 141.614 17.6334C143.594 18.5534 145.42 20.2134 147.107 22.6134L153.707 20.3934C151.907 17.0334 149.507 14.3868 146.507 12.4468C143.507 10.5068 139.687 9.53345 135.047 9.53345C132.047 9.53345 129.287 10.0534 126.767 11.0934C124.247 12.1334 122.06 13.6068 120.2 15.5001C118.34 17.4001 116.9 19.6401 115.88 22.2201C114.86 24.8001 114.354 27.6334 114.354 30.7134C114.354 34.7134 115.214 38.2934 116.934 41.4534C118.654 44.6134 121.06 47.1001 124.16 48.9201C127.26 50.7401 130.887 51.6535 135.054 51.6535C137.854 51.6535 140.454 51.1801 142.854 50.2401C145.254 49.3001 147.36 47.9801 149.187 46.2801C151.007 44.5801 152.427 42.6001 153.447 40.3401C154.467 38.0801 154.974 35.6268 154.974 32.9868C154.974 32.4268 154.934 31.8468 154.854 31.2468C154.774 30.6468 154.674 30.1068 154.554 29.6268V29.6401Z" fill="#DADADC"/>
<path d="M185.453 16.7399V10.1399H160.673V50.9999H167.633V34.0799H182.093V27.4799H167.633V16.7399H185.453Z" fill="#DADADC"/>
</g>
<defs>
<clipPath id="clip0_112_2231">
<rect width="185.453" height="60" fill="white"/>
</clipPath>
</defs>
</svg>
