<svg width="22" height="80" viewBox="0 0 22 80" fill="none" xmlns="http://www.w3.org/2000/svg">
<path d="M21 11C21 5.47715 16.5228 1 11 1C5.47715 1 1 5.47715 1 11V57.6667C1 63.1895 5.47715 67.6667 11 67.6667C16.5228 67.6667 21 63.1895 21 57.6667V11Z" stroke="#909099" stroke-linecap="round" stroke-linejoin="round"/>
<path d="M15.7113 74.4443L11.0002 79.1554L6.28906 74.4443" stroke="#909099" stroke-linecap="round" stroke-linejoin="round"/>
<path d="M14.3327 14.7037C14.3327 12.8627 12.8403 11.3704 10.9993 11.3704C9.1584 11.3704 7.66602 12.8627 7.66602 14.7037V22.1111C7.66602 23.9521 9.1584 25.4444 10.9993 25.4444C12.8403 25.4444 14.3327 23.9521 14.3327 22.1111V14.7037Z" stroke="#909099" stroke-linecap="round" stroke-linejoin="round"/>
</svg>
