<?xml version="1.0" encoding="UTF-8" standalone="no"?>
<!DOCTYPE svg PUBLIC "-//W3C//DTD SVG 1.1//EN" "http://www.w3.org/Graphics/SVG/1.1/DTD/svg11.dtd"><svg width="100%"
    height="100%" viewBox="0 0 1000 1000" version="1.1" xmlns="http://www.w3.org/2000/svg"
    xmlns:xlink="http://www.w3.org/1999/xlink" xml:space="preserve" xmlns:serif="http://www.serif.com/"
    style="fill-rule:evenodd;clip-rule:evenodd;stroke-linecap:round;stroke-linejoin:round;">
    <g id="all">
        <g id="default">
            <path
                d="M327.56,441.277c-57,46.667 -54.333,49.733 -81.367,78.333c-9.267,9.8 -23.333,30 -8.633,53.1c11.533,18.067 41.2,59.667 53.633,77c4.886,6.742 8.107,14.542 9.4,22.767c1.8,11.6 -2.533,25.933 -12.233,30.567c-15.367,7.3 -38.034,-0.733 -45.367,-16.1c-7.333,-15.367 -6.667,-45.767 38.9,-44.9"
                style="fill:none;fill-rule:nonzero;stroke:currentColor;stroke-width:8.33px;" />
            <path
                d="M510.66,453.844c0,0 67.9,101.4 198.767,112.633c113.933,9.767 77.333,-67 31.567,-60.267c-15.067,2.2 -38.167,6.867 -39.033,52.5"
                style="fill:none;fill-rule:nonzero;stroke:currentColor;stroke-width:8.33px;" />
            <path
                d="M364.027,775.611l-12,179.733c0,0 -77.767,26.667 -91.267,-1.767c-7.333,-15.333 0.867,-45.633 38.9,-44.9c18.045,0.05 35.969,2.963 53.1,8.633"
                style="fill:none;fill-rule:nonzero;stroke:currentColor;stroke-width:8.33px;" />
            <path
                d="M474.46,774.377l10.433,140c0,0 1.267,38.033 16.667,45.1c15.4,7.067 61.067,5.567 75.767,-10c0,0 6.833,-23.067 -24.1,-37.267c-15.467,-7.067 -45.867,-6.067 -68.667,-5.3"
                style="fill:none;fill-rule:nonzero;stroke:currentColor;stroke-width:8.33px;" />
            <path d="M255.959,99.01c0,0 1.2,47.067 14.567,61.367"
                style="fill:none;fill-rule:nonzero;stroke:currentColor;stroke-width:8.33px;" />
            <path d="M311.962,60.544c-4.806,19.654 -5.397,40.102 -1.733,60"
                style="fill:none;fill-rule:nonzero;stroke:currentColor;stroke-width:8.33px;" />
            <path d="M380.862,39.044l-11.333,55.433"
                style="fill:none;fill-rule:nonzero;stroke:currentColor;stroke-width:8.33px;" />
            <path d="M479.994,33.311c0,0 -34.767,33.333 -38.7,69.067"
                style="fill:none;fill-rule:nonzero;stroke:currentColor;stroke-width:8.33px;" />
            <path d="M518.394,115.611c0,0 26.667,-18.033 29.067,-35.367"
                style="fill:none;fill-rule:nonzero;stroke:currentColor;stroke-width:8.33px;" />
            <path d="M607.294,134.644c0,0 -25.833,-8.267 -46.167,21.5"
                style="fill:none;fill-rule:nonzero;stroke:currentColor;stroke-width:8.33px;" />
            <path
                d="M618.531,346.118c36.904,-99.606 -21.046,-212.909 -129.442,-253.069c-108.391,-40.16 -226.178,8.03 -263.082,107.636c-36.905,99.606 21.047,212.908 129.44,253.067c108.392,40.163 226.179,-8.029 263.083,-107.635Z"
                style="fill:none;fill-rule:nonzero;stroke:currentColor;stroke-width:8.33px;" />
            <path d="M510.694,453.844l18.8,317.4l-235.766,4.933l33.1,-332.533"
                style="fill:none;fill-rule:nonzero;stroke:currentColor;stroke-width:8.33px;" />
            <path d="M306.561,661.777l213.266,10.767"
                style="fill:none;fill-rule:nonzero;stroke:currentColor;stroke-width:8.33px;" />
            <path d="M399.328,667.477l-1.8,105.433"
                style="fill:none;fill-rule:nonzero;stroke:currentColor;stroke-width:8.33px;" />
            <path d="M396.46,197.644l-1.133,52.433"
                style="fill:none;fill-rule:nonzero;stroke:currentColor;stroke-width:8.33px;" />
            <path d="M453.839,196.131l-3.846,57.692"
                style="fill:none;fill-rule:nonzero;stroke:currentColor;stroke-width:8.33px;" />
            <path d="M345.762,294.677c0,0 18.033,59.8 71.065,64.633c72.167,6.667 81.067,-61.733 81.067,-61.733"
                style="fill:none;fill-rule:nonzero;stroke:currentColor;stroke-width:8.33px;" />
        </g>
        <g id="colors">
            <path d="M700.764,451.177l1.9,373.467"
                style="fill:none;fill-rule:nonzero;stroke:#06c;stroke-width:8.33px;" />
            <path
                d="M762.989,785.777c0,0 -60.167,39.133 -121.833,-5.4c0,0 -13.333,106.667 55.7,135.933c0,0 68.467,-1.233 66.133,-130.533Z"
                style="fill:none;fill-rule:nonzero;stroke:#06c;stroke-width:8.33px;" />
        </g>
    </g>
</svg>