<?xml version="1.0" encoding="UTF-8" standalone="no"?>
<!DOCTYPE svg PUBLIC "-//W3C//DTD SVG 1.1//EN" "http://www.w3.org/Graphics/SVG/1.1/DTD/svg11.dtd"><svg width="100%"
    height="100%" viewBox="0 0 1000 1000" version="1.1" xmlns="http://www.w3.org/2000/svg"
    xmlns:xlink="http://www.w3.org/1999/xlink" xml:space="preserve" xmlns:serif="http://www.serif.com/"
    style="fill-rule:evenodd;clip-rule:evenodd;stroke-linecap:round;stroke-linejoin:round;">
    <g id="all">
        <path
            d="M404.396,783.698l-7.3,170.467c0,0 -77.5,28.133 -91.567,0c-7.633,-15.267 0,-45.8 38.167,-45.8c18.069,-0.275 36.068,2.3 53.333,7.633"
            style="fill:none;fill-rule:nonzero;stroke:currentColor;stroke-width:8.33px;" />
        <path
            d="M514.997,808.331l6.433,106.667c0,0 0,38.133 15.2,45.8c15.2,7.667 61.033,7.7 76.333,-7.533c0,0 7.667,-22.9 -22.833,-38.2c-15.267,-7.633 -45.8,-7.667 -68.7,-7.7"
            style="fill:none;fill-rule:nonzero;stroke:currentColor;stroke-width:8.33px;" />
        <path d="M284.595,103.798c0,0 2.067,47.2 15.767,61.267"
            style="fill:none;fill-rule:nonzero;stroke:currentColor;stroke-width:8.33px;" />
        <path d="M332.765,54.065c0.15,23.617 2.38,47.175 6.667,70.4"
            style="fill:none;fill-rule:nonzero;stroke:currentColor;stroke-width:8.33px;" />
        <path d="M402.096,33.331c-8.8,38.433 -3.667,63.733 -3.667,63.733"
            style="fill:none;fill-rule:nonzero;stroke:currentColor;stroke-width:8.33px;" />
        <path d="M507.763,41.265c0,0 -34.033,26.367 -37.333,62.367"
            style="fill:none;fill-rule:nonzero;stroke:currentColor;stroke-width:8.33px;" />
        <path d="M548.163,115.431c0,0 40,-39.467 42,-56.9"
            style="fill:none;fill-rule:nonzero;stroke:currentColor;stroke-width:8.33px;" />
        <path d="M642.23,117.131c-20.688,6.566 -38.5,20.025 -50.467,38.133"
            style="fill:none;fill-rule:nonzero;stroke:currentColor;stroke-width:8.33px;" />
        <path
            d="M654.555,344.693c35.117,-100.62 -25.171,-213.166 -134.654,-251.378c-109.484,-38.212 -226.707,12.379 -261.826,112.999c-35.118,100.62 25.167,213.168 134.652,251.38c109.483,38.213 226.707,-12.379 261.828,-113.001Z"
            style="fill:none;fill-rule:nonzero;stroke:currentColor;stroke-width:8.33px;" />
        <path d="M486.23,208.198l7.5,52.067"
            style="fill:none;fill-rule:nonzero;stroke:currentColor;stroke-width:8.33px;" />
        <path d="M430.197,195.531l9.633,69.5"
            style="fill:none;fill-rule:nonzero;stroke:currentColor;stroke-width:8.33px;" />
        <path d="M408.562,300.731c0,0 16.668,44.833 50.301,52.1c41.267,8.967 63.133,-4.4 75,-37.3"
            style="fill:none;fill-rule:nonzero;stroke:currentColor;stroke-width:8.33px;" />
        <path d="M464.997,784.998l-129.766,-2.7l24.7,-337.067"
            style="fill:none;fill-rule:nonzero;stroke:currentColor;stroke-width:8.33px;" />
        <path d="M548.763,454.665l2.9,70.333"
            style="fill:none;fill-rule:nonzero;stroke:currentColor;stroke-width:8.33px;" />
        <path d="M345.895,667.298l129.102,1.033"
            style="fill:none;fill-rule:nonzero;stroke:currentColor;stroke-width:8.33px;" />
        <path d="M641.663,518.331c0,0 -70,-22.133 -92.9,-60.3"
            style="fill:none;fill-rule:nonzero;stroke:currentColor;stroke-width:8.33px;" />
        <g id="colors">
            <path
                d="M491.663,588.331c9.233,-43.133 16.067,-70 16.067,-70l244.2,45.8c0,0 -68.6,259.367 -83.933,267c-15.333,7.633 -198.433,-22.9 -206.067,-53.333c-4.2,-16.667 9.367,-83.567 23.067,-149.367"
                style="fill:none;fill-rule:nonzero;stroke:#fa7a2f;stroke-width:8.33px;" />
            <path d="M618.363,537.298l118.3,-95.367l0,116.667"
                style="fill:none;fill-rule:nonzero;stroke:#fa7a2f;stroke-width:8.33px;" />
        </g>
        <path
            d="M358.93,449.531c0,0 -68.667,83.967 -99.2,167.9c0,0 137.367,7.633 206.067,-15.267m0,0c0,0 61.033,-38.133 76.3,7.633c7.633,22.9 -22.9,30.533 -45.767,22.9c-16.2,-5.4 -30.533,-22.9 -30.533,-30.533Z"
            style="fill:none;fill-rule:nonzero;stroke:currentColor;stroke-width:8.33px;" />
    </g>
</svg>