<?xml version="1.0" encoding="UTF-8" standalone="no"?>
<!DOCTYPE svg PUBLIC "-//W3C//DTD SVG 1.1//EN" "http://www.w3.org/Graphics/SVG/1.1/DTD/svg11.dtd"><svg width="100%"
    height="100%" viewBox="0 0 1000 1000" version="1.1" xmlns="http://www.w3.org/2000/svg"
    xmlns:xlink="http://www.w3.org/1999/xlink" xml:space="preserve" xmlns:serif="http://www.serif.com/"
    style="fill-rule:evenodd;clip-rule:evenodd;stroke-linecap:round;stroke-linejoin:round;">
    <g id="all">
        <g id="default">
            <path d="M628.401,450.27c0,0 22.967,77.567 139.6,105.133"
                style="fill:none;fill-rule:nonzero;stroke:currentColor;stroke-width:8.33px;" />
            <path d="M451.867,439.003c0,0 -16.667,77.667 -137.001,125.7c-9.153,3.742 -18.581,6.775 -28.2,9.067"
                style="fill:none;fill-rule:nonzero;stroke:currentColor;stroke-width:8.33px;" />
            <path
                d="M496.967,777.036l-11.267,176.667c0,0 -76.301,27.7 -90.168,0c-7.5,-15.033 0,-45.067 37.567,-45.067c17.817,-0.279 35.571,2.25 52.6,7.5"
                style="fill:none;fill-rule:nonzero;stroke:currentColor;stroke-width:8.33px;" />
            <path
                d="M603.501,770.27l12.567,148.667c0,0 2,37.5 17.4,44.2c15.4,6.7 60.4,4.367 74.6,-11.433c0,0 6.333,-22.9 -24.467,-36.333c-15.4,-6.667 -45.4,-5.133 -67.9,-3.933"
                style="fill:none;fill-rule:nonzero;stroke:currentColor;stroke-width:8.33px;" />
            <path d="M628.667,451.336l28.8,317.167l-232.7,9.3l27.1,-338.833"
                style="fill:none;fill-rule:nonzero;stroke:currentColor;stroke-width:8.33px;" />
            <path d="M435.267,664.603l210.8,6.6"
                style="fill:none;fill-rule:nonzero;stroke:currentColor;stroke-width:8.33px;" />
            <path d="M523.767,668.603l10.9,105.033"
                style="fill:none;fill-rule:nonzero;stroke:currentColor;stroke-width:8.33px;" />
            <path d="M378.134,106.903c0,0 3.333,46.367 17.166,60"
                style="fill:none;fill-rule:nonzero;stroke:currentColor;stroke-width:8.33px;" />
            <path d="M424.201,56.67l8.467,69.1"
                style="fill:none;fill-rule:nonzero;stroke:currentColor;stroke-width:8.33px;" />
            <path d="M491.867,34.403l-1.9,62.833"
                style="fill:none;fill-rule:nonzero;stroke:currentColor;stroke-width:8.33px;" />
            <path d="M587.101,33.336c0,0 -23.767,32.9 -26.1,68.433"
                style="fill:none;fill-rule:nonzero;stroke:currentColor;stroke-width:8.33px;" />
            <path d="M637.801,111.27c0,0 38.233,-40 39.8,-57.1"
                style="fill:none;fill-rule:nonzero;stroke:currentColor;stroke-width:8.33px;" />
            <path d="M730.401,110.436c-20.171,7.025 -37.333,20.74 -48.633,38.867"
                style="fill:none;fill-rule:nonzero;stroke:currentColor;stroke-width:8.33px;" />
            <path
                d="M742.684,334.21c31.858,-99.943 -30.492,-209.067 -139.254,-243.737c-108.767,-34.67 -222.763,18.245 -254.621,118.188c-31.857,99.942 30.489,209.068 139.254,243.738c108.767,34.667 222.763,-18.246 254.621,-118.189Z"
                style="fill:none;fill-rule:nonzero;stroke:currentColor;stroke-width:8.33px;" />
            <path d="M571.567,202.936l0.733,51.8"
                style="fill:none;fill-rule:nonzero;stroke:currentColor;stroke-width:8.33px;" />
            <path d="M520.334,192.77l-1.233,59.833"
                style="fill:none;fill-rule:nonzero;stroke:currentColor;stroke-width:8.33px;" />
            <path d="M470.501,284.47c0,0 24.367,66.967 76.933,65.533c67.6,-1.833 73.333,-62.1 73.333,-62.1"
                style="fill:none;fill-rule:nonzero;stroke:currentColor;stroke-width:8.33px;" />
        </g>
        <g id="colors">
            <path
                d="M326.269,668.036c-26.667,33.033 -77.467,53.5 -133.7,21.633c0,0 -56.233,-31.833 -32.633,-94.733c23.6,-62.9 77.367,-85.8 113.333,-72.367c31.467,11.8 4.733,44.833 13.767,58.967c0,0 9.033,14.167 39.7,18.5c30.667,4.333 10.1,54.967 -0.467,68Z"
                style="fill:none;fill-rule:nonzero;stroke:#fa7a2f;stroke-width:8.33px;" />
            <path
                d="M229.702,582.503c16.433,17.167 -16.367,51.5 -33.033,25.767c-14.3,-22.6 16.667,-42.933 33.033,-25.767Z"
                style="fill:none;fill-rule:nonzero;stroke:#fa7a2f;stroke-width:8.33px;" />
            <path d="M248.301,655.803c9.8,9.833 -9.8,29.433 -19.6,14.733c-8.7,-12.9 9.8,-24.533 19.6,-14.733Z"
                style="fill:none;fill-rule:nonzero;stroke:#fa7a2f;stroke-width:8.33px;" />
            <path d="M284.168,623.336c7.567,-2.033 11.4,13.333 1.467,13.833c-8.733,0.433 -8.967,-11.9 -1.467,-13.833Z"
                style="fill:none;fill-rule:nonzero;stroke:#fa7a2f;stroke-width:8.33px;" />
            <path d="M839.267,363.336c0,0 31.633,158.033 -43.8,128.8c-92.133,-35.7 43.8,-128.8 43.8,-128.8Z"
                style="fill:none;fill-rule:nonzero;stroke:#fa7a2f;stroke-width:8.33px;" />
            <path d="M839.267,363.336c0,0 5.933,64.467 -32.467,77.433c-50.467,17.067 -11.333,51.367 -11.333,51.367"
                style="fill:none;fill-rule:nonzero;stroke:#fa7a2f;stroke-width:8.33px;" />
            <path d="M845.201,437.903c0,0 -6.667,16.667 -20,16.667c-35.667,0 -20,40.3 -20,40.3"
                style="fill:none;fill-rule:nonzero;stroke:#fa7a2f;stroke-width:8.33px;" />
            <path
                d="M808.267,498.336c0,0 -19.467,123.333 -43.033,173.333c-0.621,1.312 -1.692,2.363 -3.017,2.958c-1.321,0.6 -2.817,0.708 -4.212,0.308c-1.396,-0.4 -2.604,-1.283 -3.413,-2.492c-0.804,-1.208 -1.158,-2.667 -0.992,-4.108c5.5,-45.267 17.367,-132.667 27.833,-180"
                style="fill:none;fill-rule:nonzero;stroke:#fa7a2f;stroke-width:8.33px;" />
        </g>
    </g>
</svg>