<?xml version="1.0" encoding="UTF-8" standalone="no"?>
<!DOCTYPE svg PUBLIC "-//W3C//DTD SVG 1.1//EN" "http://www.w3.org/Graphics/SVG/1.1/DTD/svg11.dtd"><svg width="100%"
    height="100%" viewBox="0 0 1000 1000" version="1.1" xmlns="http://www.w3.org/2000/svg"
    xmlns:xlink="http://www.w3.org/1999/xlink" xml:space="preserve" xmlns:serif="http://www.serif.com/"
    style="fill-rule:evenodd;clip-rule:evenodd;stroke-linecap:round;stroke-linejoin:round;">
    <g id="all">
        <g id="default">
            <path d="M506.298,446.67c0,0 42.5,71.667 119.167,105"
                style="fill:none;fill-rule:nonzero;stroke:currentColor;stroke-width:8.33px;" />
            <path
                d="M325.464,441.67c0,0 -2.767,45.733 -125.733,86.667c-107.1,35.867 -89.733,-46.267 -44.267,-50.4c14.967,-1.367 38.233,-2.233 49.633,41.367"
                style="fill:none;fill-rule:nonzero;stroke:currentColor;stroke-width:8.33px;" />
            <path
                d="M367.397,776.97l-7.533,176.667c0,0 -76.267,27.7 -90,0c-7.5,-15.033 0,-45.067 37.567,-45.067c17.804,-0.3 35.544,2.208 52.567,7.433"
                style="fill:none;fill-rule:nonzero;stroke:currentColor;stroke-width:8.33px;" />
            <path
                d="M474.831,770.27l15.367,148.667c0,0 2,37.5 17.367,44.2c15.367,6.7 60.4,4.367 74.6,-11.433c0,0 6.333,-22.9 -24.467,-36.333c-15.367,-6.667 -45.367,-5.1 -67.867,-3.933"
                style="fill:none;fill-rule:nonzero;stroke:currentColor;stroke-width:8.33px;" />
            <path d="M243.333,123.736c0,0 7.067,25.367 20.533,39.233"
                style="fill:none;fill-rule:nonzero;stroke:currentColor;stroke-width:8.33px;" />
            <path d="M296.031,71.17l6.433,51.867"
                style="fill:none;fill-rule:nonzero;stroke:currentColor;stroke-width:8.33px;" />
            <path d="M364.097,33.336l-3.633,62.733"
                style="fill:none;fill-rule:nonzero;stroke:currentColor;stroke-width:8.33px;" />
            <path d="M453.731,33.637c0,0 -19.167,33.333 -22.367,68.9"
                style="fill:none;fill-rule:nonzero;stroke:currentColor;stroke-width:8.33px;" />
            <path d="M498.798,123.736c0,0 43.033,-35.4 45.033,-52.567"
                style="fill:none;fill-rule:nonzero;stroke:currentColor;stroke-width:8.33px;" />
            <path d="M600.398,115.803c-20.363,6.458 -37.896,19.707 -49.667,37.533"
                style="fill:none;fill-rule:nonzero;stroke:currentColor;stroke-width:8.33px;" />
            <path
                d="M606.527,339.751c34.554,-99.004 -24.779,-209.748 -132.525,-247.353c-107.746,-37.606 -223.104,12.167 -257.658,111.171c-34.555,99.004 24.78,209.748 132.526,247.355c107.745,37.604 223.103,-12.171 257.657,-111.173Z"
                style="fill:none;fill-rule:nonzero;stroke:currentColor;stroke-width:8.33px;" />
            <path d="M506.298,446.67l25.267,321.9l-232.6,9.267l28.167,-333.233"
                style="fill:none;fill-rule:nonzero;stroke:currentColor;stroke-width:8.33px;" />
            <path d="M309.467,664.703l210.698,6.6"
                style="fill:none;fill-rule:nonzero;stroke:currentColor;stroke-width:8.33px;" />
            <path d="M395.831,668.936l11.867,104.7"
                style="fill:none;fill-rule:nonzero;stroke:currentColor;stroke-width:8.33px;" />
            <path d="M431.606,199.033l3.458,52.519"
                style="fill:none;fill-rule:nonzero;stroke:currentColor;stroke-width:8.33px;" />
            <path d="M375.665,195.256l5.325,56.926"
                style="fill:none;fill-rule:nonzero;stroke:currentColor;stroke-width:8.33px;" />
            <path d="M347.048,285.381c0,0 13.187,45.978 46.165,55.797c40.493,12.068 63.285,0.445 77.673,-31.481"
                style="fill:none;fill-rule:nonzero;stroke:currentColor;stroke-width:8.33px;" />
        </g>
        <g id="colors">
            <path d="M672.731,499.57l-89.8,64.3" style="fill:none;fill-rule:nonzero;stroke:#06c;stroke-width:8.33px;" />
            <path
                d="M867.26,339.436c-40.433,0.3 -104.733,49.267 -184.567,121.3c-12.467,11.267 -46.667,51.6 19.767,31.933c82.067,-24.333 198.367,-153.5 164.8,-153.233Z"
                style="fill:none;fill-rule:nonzero;stroke:#06c;stroke-width:8.33px;" />
            <path
                d="M871.964,350.37c0,0 31.267,38.033 -29.033,92.433c-24.933,22.5 -83.567,59.733 -117.967,74.8c-9.733,4.267 -29.2,12.767 -48.933,-19.633"
                style="fill:none;fill-rule:nonzero;stroke:#06c;stroke-width:8.33px;" />
            <path d="M722.031,216.67c0,0 -70,38.4 2.433,80.867c0,0 18.6,14.767 5.733,50c0,0 -7.733,21.167 13.333,28.9"
                style="fill:none;fill-rule:nonzero;stroke:#06c;stroke-width:8.33px;" />
            <path d="M772.664,273.503c0,0 -24.433,23.067 -8.4,44.9c16.033,21.833 25.633,17.367 15.333,45.567"
                style="fill:none;fill-rule:nonzero;stroke:#06c;stroke-width:8.33px;" />
            <path d="M697.498,327.57c0,0 -27,30 3.133,57.1"
                style="fill:none;fill-rule:nonzero;stroke:#06c;stroke-width:8.33px;" />
            <path
                d="M154.197,343.703c-25.233,6.3 -30.867,77.533 12.467,88.533c13.733,3.333 37.6,-11.533 30,-53.633c0,0 -10,-42.9 -42.467,-34.9Z"
                style="fill:none;fill-rule:nonzero;stroke:#06c;stroke-width:8.33px;stroke-linejoin:miter;stroke-miterlimit:10;" />
            <path d="M179.03,433.603c0,0 16.933,71.3 43.8,116.4"
                style="fill:none;fill-rule:nonzero;stroke:#06c;stroke-width:8.33px;stroke-linejoin:miter;stroke-miterlimit:10;" />
        </g>
    </g>
</svg>