<?xml version="1.0" encoding="UTF-8" standalone="no"?>
<!DOCTYPE svg PUBLIC "-//W3C//DTD SVG 1.1//EN" "http://www.w3.org/Graphics/SVG/1.1/DTD/svg11.dtd"><svg width="100%"
    height="100%" viewBox="0 0 1000 1000" version="1.1" xmlns="http://www.w3.org/2000/svg"
    xmlns:xlink="http://www.w3.org/1999/xlink" xml:space="preserve" xmlns:serif="http://www.serif.com/"
    style="fill-rule:evenodd;clip-rule:evenodd;stroke-linecap:round;stroke-linejoin:round;">
    <g id="all">
        <g id="default">
            <path
                d="M430.079,452.231c0,0 72.467,54.933 89.267,70.3c82.567,75.567 9.033,99.767 -18.667,63.933c-9.1,-11.8 -20,-35.2 10.3,-67.933"
                style="fill:none;fill-rule:nonzero;stroke:currentColor;stroke-width:8.33px;" />
            <path
                d="M302.812,513.598c0,0 48.033,98.867 99.433,138.467c88.666,68.3 100,-3.933 60.966,-26.667c-12.867,-7.5 -38,-14.367 -66.666,20"
                style="fill:none;fill-rule:nonzero;stroke:currentColor;stroke-width:8.33px;" />
            <path
                d="M293.313,767.598l-8.9,177c0,0 -75.633,27.467 -89.367,0c-7.433,-14.867 0,-44.667 37.233,-44.667c17.663,-0.279 35.258,2.242 52.133,7.467"
                style="fill:none;fill-rule:nonzero;stroke:currentColor;stroke-width:8.33px;" />
            <path
                d="M396.078,765.931l17.534,136.1c0,0 1.967,37.2 17.233,43.833c15.267,6.633 60,4.3 73.967,-11.333c0,0 6.233,-22.7 -24.267,-36c-15.267,-6.667 -45,-5.1 -67.3,-3.933"
                style="fill:none;fill-rule:nonzero;stroke:currentColor;stroke-width:8.33px;" />
            <path d="M177.414,105.298c0,0 1.167,46.067 14.233,60"
                style="fill:none;fill-rule:nonzero;stroke:currentColor;stroke-width:8.33px;" />
            <path d="M225.312,57.698c-8.433,24.567 5.2,68.967 5.2,68.967"
                style="fill:none;fill-rule:nonzero;stroke:currentColor;stroke-width:8.33px;" />
            <path d="M293.311,38.798c-9.133,30 -4.767,62.1 -4.767,62.1"
                style="fill:none;fill-rule:nonzero;stroke:currentColor;stroke-width:8.33px;" />
            <path d="M381.646,33.331c0,0 -37.8,29.067 -22.967,75.333"
                style="fill:none;fill-rule:nonzero;stroke:currentColor;stroke-width:8.33px;" />
            <path d="M434.245,121.631c0,0 39.7,-37.733 42.2,-54.7"
                style="fill:none;fill-rule:nonzero;stroke:currentColor;stroke-width:8.33px;" />
            <path d="M525.979,125.065c-20.321,6.009 -37.967,18.796 -50,36.233"
                style="fill:none;fill-rule:nonzero;stroke:currentColor;stroke-width:8.33px;" />
            <path
                d="M534.687,344.624c36.696,-98.934 -16.546,-209.917 -118.921,-247.888c-102.377,-37.971 -215.115,11.449 -251.81,110.383c-36.695,98.933 16.549,209.917 118.924,247.888c102.375,37.971 215.115,-11.45 251.806,-110.382Z"
                style="fill:none;fill-rule:nonzero;stroke:currentColor;stroke-width:8.33px;" />
            <path d="M371.347,210.331l7.3,50.833"
                style="fill:none;fill-rule:nonzero;stroke:currentColor;stroke-width:8.33px;" />
            <path d="M317.912,203.831l8.167,61.967"
                style="fill:none;fill-rule:nonzero;stroke:currentColor;stroke-width:8.33px;" />
            <path d="M303.114,311.398c0,0 14.667,33.9 41.4,40c36.333,8.367 61.567,-4.3 73.332,-36.4"
                style="fill:none;fill-rule:nonzero;stroke:currentColor;stroke-width:8.33px;" />
            <path d="M447.612,680.465l7.033,80.733l-230.633,9.2l24.133,-328.8"
                style="fill:none;fill-rule:nonzero;stroke:currentColor;stroke-width:8.33px;" />
            <path d="M430.112,451.865l14,165.4"
                style="fill:none;fill-rule:nonzero;stroke:currentColor;stroke-width:8.33px;" />
            <path d="M234.445,658.231l181.567,4.7"
                style="fill:none;fill-rule:nonzero;stroke:currentColor;stroke-width:8.33px;" />
            <path d="M351.413,662.065l8.533,102.033"
                style="fill:none;fill-rule:nonzero;stroke:currentColor;stroke-width:8.33px;" />
        </g>
        <g id="colors">
            <path
                d="M653.979,634.865l-163.8,89.333l163.8,119.133c0,0 22.333,29.767 67,0l126.667,-81.9l-193.667,-126.567Z"
                style="fill:none;fill-rule:nonzero;stroke:#06c;stroke-width:8.33px;" />
            <path d="M496.779,728.965c0,0 45.533,114.367 127.4,166.467c81.867,52.1 209.167,-80.5 220,-131.367"
                style="fill:none;fill-rule:nonzero;stroke:#06c;stroke-width:8.33px;" />
            <path d="M690.379,856.665c0,0 -19.133,40.8 -63.8,40.8"
                style="fill:none;fill-rule:nonzero;stroke:#06c;stroke-width:8.33px;" />
            <path d="M756.449,872.831c0,0 28.067,70 -20.5,89.633c-57,22.8 -74.2,-54.567 -74.2,-54.567"
                style="fill:none;fill-rule:nonzero;stroke:#06c;stroke-width:8.33px;" />
            <path
                d="M542.316,753.998c0,0 0.867,-29.567 29.767,-22.333c29.767,7.433 52.1,-7.467 44.667,-37.233c-4.033,-16.133 22.333,-37.233 44.667,-14.9c16.667,16.667 44.667,-7.433 37.233,37.233c-3.667,22.033 37.233,14.9 37.233,14.9c0,0 29.767,-7.467 29.767,14.9c0,22.367 6.133,32.3 14.9,37.2c6.667,3.767 18,4.333 29.767,-7.433"
                style="fill:none;fill-rule:nonzero;stroke:#06c;stroke-width:8.33px;" />
            <path
                d="M720.979,813.565c0,0 14.9,-37.233 -22.333,-22.333c0,0 7.433,-44.667 -29.767,-22.333c0,0 -7.467,-59.567 -52.133,-7.467"
                style="fill:none;fill-rule:nonzero;stroke:#06c;stroke-width:8.33px;" />
            <path d="M507.312,711.431l-31.6,-30.967"
                style="fill:none;fill-rule:nonzero;stroke:#06c;stroke-width:8.33px;" />
            <path d="M630.079,648.298l-72.9,-65.533"
                style="fill:none;fill-rule:nonzero;stroke:#06c;stroke-width:8.33px;" />
            <path d="M686.216,905.298c0,0 8.267,35.867 30.867,30.833c23.1,-5.133 23.1,-25.7 15.4,-48.8"
                style="fill:none;fill-rule:nonzero;stroke:#06c;stroke-width:8.33px;" />
        </g>
    </g>
</svg>