<?xml version="1.0" encoding="UTF-8" standalone="no"?>
<!DOCTYPE svg PUBLIC "-//W3C//DTD SVG 1.1//EN" "http://www.w3.org/Graphics/SVG/1.1/DTD/svg11.dtd"><svg width="100%"
    height="100%" viewBox="0 0 1000 1000" version="1.1" xmlns="http://www.w3.org/2000/svg"
    xmlns:xlink="http://www.w3.org/1999/xlink" xml:space="preserve" xmlns:serif="http://www.serif.com/"
    style="fill-rule:evenodd;clip-rule:evenodd;stroke-linecap:round;stroke-linejoin:round;">
    <g id="all">
        <g id="default">
            <path d="M581.964,453.6c0,0 30.433,80.733 148,108.5"
                style="fill:none;fill-rule:nonzero;stroke:currentColor;stroke-width:8.33px;" />
            <path d="M403.996,442.267c0,0 -17.733,77.167 -143.033,114.333c-12.746,3.038 -25.672,5.263 -38.7,6.667"
                style="fill:none;fill-rule:nonzero;stroke:currentColor;stroke-width:8.33px;" />
            <path
                d="M447.964,780.333l-10,173.933c0,0 -76.934,27.9 -90.901,0c-7.567,-15.167 0,-45.433 37.867,-45.433c17.966,-0.283 35.863,2.271 53.034,7.567"
                style="fill:none;fill-rule:nonzero;stroke:currentColor;stroke-width:8.33px;" />
            <path
                d="M555.397,776.967l14.133,141.567c0,0 2,37.8 17.5,44.567c15.5,6.767 60.9,4.4 75.233,-11.533c0,0 6.367,-23.067 -24.667,-36.667c-15.533,-6.667 -45.767,-5.2 -68.467,-4"
                style="fill:none;fill-rule:nonzero;stroke:currentColor;stroke-width:8.33px;" />
            <path d="M582.264,454.667l28.967,319.733l-234.565,9.367l27.333,-341.5"
                style="fill:none;fill-rule:nonzero;stroke:currentColor;stroke-width:8.33px;" />
            <path d="M387.265,669.667l212.465,6.667"
                style="fill:none;fill-rule:nonzero;stroke:currentColor;stroke-width:8.33px;" />
            <path d="M504.664,673.933l13.8,103.033"
                style="fill:none;fill-rule:nonzero;stroke:currentColor;stroke-width:8.33px;" />
            <path d="M329.665,107.5c0,0 3.333,46.667 17.3,60.333"
                style="fill:none;fill-rule:nonzero;stroke:currentColor;stroke-width:8.33px;" />
            <path d="M376.096,56.867l8.533,69.633"
                style="fill:none;fill-rule:nonzero;stroke:currentColor;stroke-width:8.33px;" />
            <path d="M444.297,34.4l-1.9,63.333"
                style="fill:none;fill-rule:nonzero;stroke:currentColor;stroke-width:8.33px;" />
            <path d="M547.897,33.333c0,0 -31.6,33.333 -33.9,68.967"
                style="fill:none;fill-rule:nonzero;stroke:currentColor;stroke-width:8.33px;" />
            <path d="M591.397,111.9c0,0 38.6,-40.233 40.133,-57.567"
                style="fill:none;fill-rule:nonzero;stroke:currentColor;stroke-width:8.33px;" />
            <path d="M684.764,111.067c-20.333,7.062 -37.633,20.888 -49,39.167"
                style="fill:none;fill-rule:nonzero;stroke:currentColor;stroke-width:8.33px;" />
            <path
                d="M697.139,336.609c32.117,-100.75 -30.733,-210.755 -140.375,-245.704c-109.642,-34.949 -224.56,18.393 -256.675,119.142c-32.115,100.75 30.734,210.757 140.375,245.703c109.646,34.95 224.563,-18.392 256.675,-119.141Z"
                style="fill:none;fill-rule:nonzero;stroke:currentColor;stroke-width:8.33px;" />
            <path d="M524.631,204.733l0.767,52.2"
                style="fill:none;fill-rule:nonzero;stroke:currentColor;stroke-width:8.33px;" />
            <path d="M473.031,194.467l-1.267,60.333"
                style="fill:none;fill-rule:nonzero;stroke:currentColor;stroke-width:8.33px;" />
            <path d="M422.797,286.933c0,0 24.567,67.5 77.533,66.067c68.133,-1.867 74.067,-62.633 74.067,-62.633"
                style="fill:none;fill-rule:nonzero;stroke:currentColor;stroke-width:8.33px;" />
        </g>
        <g id="colors">
            <path
                d="M721.531,450c-2.133,-9.733 -1.633,-8.833 11.8,-8.833c6.967,0 20.333,-6.667 21.7,-3.633c11.867,27.133 14.967,70.7 15.933,104.667c0.325,11.296 4.525,22.138 11.9,30.7c21.567,25 65.233,77.967 58.9,89.1c-6.967,12.3 -103.9,30.367 -144,22.4c-2.338,-0.471 -4.558,-1.404 -6.533,-2.746c-1.971,-1.342 -3.658,-3.067 -4.95,-5.071c-1.296,-2.004 -2.179,-4.246 -2.592,-6.596c-0.417,-2.35 -0.354,-4.763 0.175,-7.087c6.021,-27.246 20.708,-51.808 41.867,-70c1.967,-1.7 3.529,-3.821 4.575,-6.2c1.042,-2.383 1.542,-4.967 1.458,-7.567c-0.467,-24.4 -2.5,-93.567 -10.233,-129.133Z"
                style="fill:none;fill-rule:nonzero;stroke:#fa7a2f;stroke-width:8.33px;" />
            <path d="M707.231,624.633l53.333,-4.767"
                style="fill:none;fill-rule:nonzero;stroke:#fa7a2f;stroke-width:4.17px;" />
            <path d="M690.531,654.1l53.333,-4.767"
                style="fill:none;fill-rule:nonzero;stroke:#fa7a2f;stroke-width:4.17px;" />
            <path d="M716.664,441.233c0,0 25.6,-0.8 43.667,-6.667"
                style="fill:none;fill-rule:nonzero;stroke:#fa7a2f;stroke-width:4.17px;" />
            <path
                d="M239.795,444.6c-10,-20 -59.167,-13.7 -59.167,-13.7c0,0 -15.167,7.567 0,15.133c0,0 -20,96.167 -22.733,128.733c-1.1,12.667 0,37.867 22.733,45.433c22.733,7.567 35,-24.767 37.833,-37.867c7.667,-35.333 14.633,-144.433 14.633,-144.433"
                style="fill:none;fill-rule:nonzero;stroke:#fa7a2f;stroke-width:8.33px;" />
            <path d="M195.764,559.633l-30.3,-7.567"
                style="fill:none;fill-rule:nonzero;stroke:#fa7a2f;stroke-width:4.17px;" />
            <path d="M222.632,532.767l-30.3,-7.567"
                style="fill:none;fill-rule:nonzero;stroke:#fa7a2f;stroke-width:4.17px;" />
            <path d="M180.633,589.9l-22.733,-7.567"
                style="fill:none;fill-rule:nonzero;stroke:#fa7a2f;stroke-width:4.17px;" />
            <path d="M215.93,358c7.567,-2.067 11.4,13.167 1.467,13.8c-8.733,0.567 -9.067,-11.8 -1.467,-13.8Z"
                style="fill:none;fill-rule:nonzero;stroke:#fa7a2f;stroke-width:8.33px;" />
            <path
                d="M225.997,408.333c7.567,-2.033 11.433,13.333 1.467,13.833c-8.733,0.567 -9.067,-11.767 -1.467,-13.833Z"
                style="fill:none;fill-rule:nonzero;stroke:#fa7a2f;stroke-width:8.33px;" />
            <path d="M198.263,389.267c6.667,-1.833 10.167,11.733 1.3,12.3c-7.767,0.5 -8.067,-10.5 -1.3,-12.3Z"
                style="fill:none;fill-rule:nonzero;stroke:#fa7a2f;stroke-width:8.33px;" />
        </g>
    </g>
</svg>