<svg xmlns="http://www.w3.org/2000/svg" viewBox="0 0 265.78 90">
    <defs>
        <style>
            .cls-1 {
                fill: #117CB4;
            }

            .cls-2 {
                fill: #ff9519;
            }

            .cls-3 {
                fill: #e5e5e5;
            }
        </style>
    </defs>
    <title>logo</title>
    <g id="Layer_2" data-name="Layer 2">
        <g id="marca">
            <polygon class="cls-1" points="11.93 0 28.81 16.88 73.13 16.88 73.13 61.19 90 78.07 90 0 11.93 0" />
            <polygon class="cls-2" points="16.88 73.13 16.88 28.81 0 11.93 0 90 78.07 90 61.19 73.13 16.88 73.13" />
            <path class="cls-3"
                d="M133.78,76.77q-12,0-18.92-8.14T108,45a47.93,47.93,0,0,1,1.76-13.64,27.89,27.89,0,0,1,5.1-9.94A21.49,21.49,0,0,1,123,15.3a27,27,0,0,1,10.78-2.07q8,0,13.42,3.49a23.17,23.17,0,0,1,8.5,10.33l-8.36,4.57a15.25,15.25,0,0,0-4.89-7,13.63,13.63,0,0,0-8.67-2.6q-7.12,0-11.17,4.86t-4,13.43v9.36q0,8.58,4,13.43T133.78,68a13.7,13.7,0,0,0,9-2.86A17,17,0,0,0,148,57.76l8,4.84A24.77,24.77,0,0,1,147.34,73,23.66,23.66,0,0,1,133.78,76.77Z" />
            <path class="cls-3"
                d="M204.89,66.47h-.35a11.87,11.87,0,0,1-5.24,7.37c-2.85,2-6.61,2.93-11.31,2.93a24.66,24.66,0,0,1-10.12-2.07,22.26,22.26,0,0,1-8.05-6.07,28.65,28.65,0,0,1-5.28-9.95A45.14,45.14,0,0,1,162.65,45a43.91,43.91,0,0,1,1.93-13.6,28.35,28.35,0,0,1,5.46-10,22.7,22.7,0,0,1,8.45-6.12,28.12,28.12,0,0,1,11-2.07,25.51,25.51,0,0,1,14,3.65A24.33,24.33,0,0,1,212.37,27l-8.1,4.74a16,16,0,0,0-5.45-7,15.43,15.43,0,0,0-9.33-2.7q-7.31,0-11.75,4.68c-3,3.13-4.44,7.54-4.44,13.26V50q0,8.57,4.44,13.25T189.49,68a20.19,20.19,0,0,0,5.54-.75A14.35,14.35,0,0,0,199.65,65a11.16,11.16,0,0,0,3.17-3.63A10.46,10.46,0,0,0,204,56.29V51.51H191.34V43H213.6V75.71h-8.71Z" />
            <path class="cls-3" d="M227.42,75.71V14.29h38.36v8.8H237.36V40.16h25.26V49H237.36V75.71Z" />
        </g>
    </g>
</svg>