<?xml version="1.0" standalone="no"?>
<!DOCTYPE svg PUBLIC "-//W3C//DTD SVG 20010904//EN"
 "http://www.w3.org/TR/2001/REC-SVG-20010904/DTD/svg10.dtd">
<svg version="1.0" xmlns="http://www.w3.org/2000/svg"
 width="512.000000pt" height="512.000000pt" viewBox="0 0 512.000000 512.000000"
 preserveAspectRatio="xMidYMid meet">
<metadata>
Created by potrace 1.14, written by Peter Selinger 2001-2017
</metadata>
<g transform="translate(0.000000,512.000000) scale(0.100000,-0.100000)"
fill="#000000" stroke="none">
<path d="M1268 5109 c-119 -17 -293 -66 -391 -109 -42 -19 -47 -23 -35 -38 7
-9 190 -193 405 -409 l393 -393 1047 -1 c1146 -1 1097 2 1213 -60 113 -60 226
-207 246 -319 3 -19 7 -42 9 -50 2 -8 4 -482 4 -1052 l1 -1038 408 -408 408
-408 31 75 c29 69 61 163 67 194 6 32 26 125 33 152 4 17 8 595 9 1285 2 1054
0 1270 -12 1350 -67 435 -329 820 -711 1043 -43 25 -107 58 -143 72 -36 15
-79 33 -96 40 -45 19 -227 63 -309 74 -86 12 -2496 12 -2577 0z"/>
<path d="M117 4233 c-39 -90 -81 -230 -103 -348 -4 -22 -9 -605 -10 -1295 -2
-1418 -5 -1362 76 -1600 36 -106 80 -202 133 -290 79 -132 234 -303 364 -402
130 -101 320 -195 488 -242 198 -56 164 -55 1530 -53 l1260 3 100 23 c108 24
290 85 320 107 16 12 -18 49 -387 419 l-406 405 -1043 1 c-951 0 -1050 2
-1110 17 -68 18 -152 63 -204 110 -39 35 -95 107 -95 121 0 6 -4 11 -10 11 -5
0 -10 8 -10 18 0 10 -4 22 -10 28 -5 5 -16 38 -24 74 -13 56 -16 210 -16 1104
l0 1039 -404 403 c-222 222 -406 404 -409 404 -2 0 -16 -26 -30 -57z"/>
</g>
</svg>
