<?xml version="1.0" encoding="utf-8"?>
<!-- Generator: Adobe Illustrator 24.0.0, SVG Export Plug-In . SVG Version: 6.00 Build 0)  -->
<svg version="1.1" xmlns="http://www.w3.org/2000/svg" xmlns:xlink="http://www.w3.org/1999/xlink" x="0px" y="0px"
	 viewBox="0 0 1080 1080" style="enable-background:new 0 0 1080 1080;" xml:space="preserve">
<style type="text/css">
	.st0{fill:#272F42;}
	.st1{opacity:0.6;fill:#FF9519;}
	.st2{fill:#F5F5F5;}
	.st3{fill:#F86C77;}
	.st4{fill:#36756F;}
	.st5{fill:#C5C5C5;}
	.st6{fill:#0091FF;}
	.st7{opacity:0.85;fill:#272F42;}
	.st8{fill:#47998F;}
	.st9{fill:#DF8A58;}
	.st10{fill:#00CD69;}
	.st11{fill:none;stroke:#038AF2;stroke-width:2.2315;stroke-linecap:round;stroke-linejoin:round;stroke-miterlimit:10;}
	.st12{fill:#131637;}
	.st13{opacity:0.4;fill:#36756F;}
	.st14{fill:#F99767;}
	.st15{fill:#000F1F;}
	.st16{fill:#038AF2;}
	.st17{fill:#2F4B84;}
	.st18{fill:#41847A;}
</style>
<g id="bg">
	<rect x="-9" y="-1" class="st0" width="1098" height="1082"/>
</g>
<g id="people">
	<g>
		<path class="st1" d="M616.9,77c-107.6,104.7-251,189.8-435.5,224.2C105.9,315.3,89,342.7,73.2,387c-16.5,46.3,19,104.4,90,137.5
			c231.8,107.9,457.7,71.7,583.2,22.9c157.6-61.2,295.3-203.8,258.5-361.1C961.8,2.7,755.2-57.7,616.9,77z"/>
		<g>
			<path class="st2" d="M637.6,478.9H289.5c-15,0-27.1-12.1-27.1-27.1V108.7c0-15,12.1-27.1,27.1-27.1h348.1
				c15,0,27.1,12.1,27.1,27.1v343.1C664.7,466.7,652.6,478.9,637.6,478.9z"/>
			<g>
				<path class="st3" d="M318.3,350.2c0-4.9-3.9-8.8-8.8-8.8c-2.8,0-5.2,1.3-6.8,3.3c-1.6-2-4.1-3.3-6.8-3.3c-4.9,0-8.8,3.9-8.8,8.8
					c0,2.8,1.4,5.3,3.4,6.9l0,0l0.2,0.1c0.2,0.1,0.4,0.3,0.6,0.4l11.4,7.4l11.4-7.4c0.2-0.1,0.4-0.3,0.6-0.4l0.2-0.1l0,0
					C316.9,355.5,318.3,353,318.3,350.2z"/>
				<path class="st3" d="M357.3,350.2c0-4.9-3.9-8.8-8.8-8.8c-2.8,0-5.2,1.3-6.8,3.3c-1.6-2-4.1-3.3-6.8-3.3c-4.9,0-8.8,3.9-8.8,8.8
					c0,2.8,1.4,5.3,3.4,6.9l0,0l0.2,0.1c0.2,0.1,0.4,0.3,0.6,0.4l11.4,7.4l11.4-7.4c0.2-0.1,0.4-0.3,0.6-0.4l0.2-0.1l0,0
					C356,355.5,357.3,353,357.3,350.2z"/>
			</g>
			<g>
				<path class="st4" d="M435.2,326.2H309c-11.2,0-20.3-9.1-20.3-20.3V191.2c0-11.2,9.1-20.3,20.3-20.3h126.2
					c11.2,0,20.3,9.1,20.3,20.3v114.7C455.5,317.1,446.4,326.2,435.2,326.2z"/>
				<rect x="476.4" y="171" class="st4" width="166.8" height="31.9"/>
				<rect x="476.4" y="218.9" class="st4" width="166.8" height="31.9"/>
				<rect x="476.4" y="266.9" class="st4" width="166.8" height="31.9"/>
			</g>
			<path class="st5" d="M635.4,81.6H291.7c-16.2,0-29.3,11.2-29.3,25.1v22.7h402.3v-22.7C664.7,92.8,651.6,81.6,635.4,81.6z"/>
			<g>
				<path class="st0" d="M614.2,105.4c0,4.9-4,8.9-8.9,8.9c-4.9,0-8.9-4-8.9-8.9c0-4.9,4-8.9,8.9-8.9
					C610.2,96.5,614.2,100.5,614.2,105.4z"/>
				<path class="st3" d="M583,105.4c0,4.9-4,8.9-8.9,8.9c-4.9,0-8.9-4-8.9-8.9c0-4.9,4-8.9,8.9-8.9C579,96.5,583,100.5,583,105.4z"
					/>
				<path class="st6" d="M644.6,105.4c0,4.9-4,8.9-8.9,8.9c-4.9,0-8.9-4-8.9-8.9c0-4.9,4-8.9,8.9-8.9
					C640.6,96.5,644.6,100.5,644.6,105.4z"/>
			</g>
			<g>
				<g>
					<path class="st2" d="M427.8,308.8c-1.3,0-2.5-0.5-3.4-1.4L313,194.6c-1.6-1.6-1.4-4,0.5-5.4c1.9-1.3,4.7-1.2,6.3,0.5
						l111.4,112.9c1.6,1.6,1.4,4-0.5,5.4C429.8,308.5,428.8,308.8,427.8,308.8z"/>
				</g>
				<g>
					<path class="st2" d="M316.4,308.8c-1,0-2-0.3-2.9-0.9c-1.9-1.4-2.1-3.8-0.5-5.4l111.4-112.9c1.6-1.6,4.4-1.8,6.3-0.5
						c1.9,1.4,2.1,3.8,0.5,5.4L319.8,307.5C318.9,308.4,317.7,308.8,316.4,308.8z"/>
				</g>
			</g>
			<g>
				<rect x="474.8" y="320.4" class="st7" width="166.8" height="5.6"/>
				<rect x="474.8" y="338.6" class="st7" width="166.8" height="5.6"/>
				<rect x="388.6" y="338.6" class="st7" width="67" height="5.6"/>
				<rect x="388.6" y="356.6" class="st7" width="67" height="5.6"/>
				<rect x="388.6" y="374.6" class="st7" width="67" height="5.6"/>
				<rect x="388.6" y="392.6" class="st7" width="67" height="5.6"/>
				<rect x="388.6" y="410.7" class="st7" width="67" height="5.6"/>
				<rect x="388.6" y="428.7" class="st7" width="67" height="5.6"/>
				<rect x="388.6" y="446.7" class="st7" width="67" height="5.6"/>
				<rect x="288.7" y="446.7" class="st7" width="67" height="5.6"/>
				<rect x="288.7" y="428.9" class="st7" width="67" height="5.6"/>
				<rect x="288.7" y="411.2" class="st7" width="67" height="5.6"/>
				<rect x="288.7" y="393.4" class="st7" width="67" height="5.6"/>
				<rect x="288.7" y="375.7" class="st7" width="67" height="5.6"/>
				<rect x="474.8" y="356.8" class="st7" width="166.8" height="5.6"/>
				<rect x="474.8" y="375.1" class="st7" width="166.8" height="5.6"/>
				<rect x="474.8" y="393.3" class="st7" width="166.8" height="5.6"/>
				<rect x="474.8" y="411.5" class="st7" width="166.8" height="5.6"/>
				<rect x="474.8" y="429.7" class="st7" width="166.8" height="5.6"/>
				<rect x="474.8" y="448" class="st7" width="166.8" height="5.6"/>
			</g>
		</g>
		<g>
			<path class="st8" d="M745,327c0,0-134.5,8.2-200.8-71.9l-19.1,28c0,0,74.3,112,237.6,123.8C762.7,406.9,773.5,363.4,745,327z"/>
			<path class="st4" d="M576.3,335.7c20.6,16.4,47.5,33.7,81.2,47.3l59.2-17.3l-1.6-38.9c-24.8-1.4-61.6-6.1-97.4-20.4L576.3,335.7z
				"/>
			<path class="st9" d="M531.3,247.5l-20.1-30.1l-66.6-24.6c0,0-8.4,12.5,38.9,28.6l-8.2,13.1l8.1,23.7l26.6,7.6l4.4,7.1
				L531.3,247.5z"/>
			<polygon class="st10" points="504.9,270.2 536.8,242.7 552,258.7 520.6,287 			"/>
		</g>
		<path class="st3" d="M522,376.7l62.8,115l-107,0.4l-60.7-111.8c-2.1-3.8,0.7-8.5,5-8.5l91.2-0.2
			C516.9,371.5,520.3,373.5,522,376.7z"/>
		<polygon class="st0" points="516.1,380.6 571.8,482.7 480.9,483 425.4,380.8 		"/>
		<g>
			<line class="st11" x1="437.8" y1="387.5" x2="513" y2="387.5"/>
			<line class="st11" x1="441.7" y1="394.6" x2="467" y2="394.6"/>
			<line class="st11" x1="478.6" y1="394.6" x2="489" y2="394.6"/>
			<line class="st11" x1="494" y1="394.6" x2="504.4" y2="394.6"/>
			<line class="st11" x1="445.7" y1="401.7" x2="521" y2="401.7"/>
			<line class="st11" x1="449.7" y1="408.7" x2="524.9" y2="408.7"/>
			<line class="st11" x1="453.7" y1="415.8" x2="483.9" y2="415.8"/>
			<line class="st11" x1="457.6" y1="422.9" x2="470.9" y2="422.9"/>
			<line class="st11" x1="478.8" y1="422.9" x2="492" y2="422.9"/>
			<line class="st11" x1="499.2" y1="422.9" x2="512.5" y2="422.9"/>
			<line class="st11" x1="519.7" y1="422.9" x2="533" y2="422.9"/>
			<line class="st11" x1="461.6" y1="430" x2="536.8" y2="430"/>
			<line class="st11" x1="503.7" y1="437.1" x2="540.8" y2="437.1"/>
			<line class="st11" x1="469.5" y1="444.1" x2="544.8" y2="444.1"/>
			<line class="st11" x1="473.5" y1="451.2" x2="548.7" y2="451.2"/>
			<line class="st11" x1="477.5" y1="458.3" x2="552.7" y2="458.3"/>
			<line class="st11" x1="481.4" y1="465.4" x2="556.7" y2="465.4"/>
			<line class="st11" x1="485.4" y1="472.4" x2="560.6" y2="472.4"/>
			<line class="st11" x1="509.1" y1="415.8" x2="527.9" y2="415.8"/>
		</g>
		<path class="st1" d="M858.8,1028.1c-0.3,27.1-66.3,48.5-147.4,47.8c-81.1-0.7-146.7-23.2-146.4-50.3
			c0.3-27.1,66.3-48.5,147.4-47.8C793.5,978.5,859.1,1001,858.8,1028.1z"/>
		<polygon class="st2" points="670.8,255.7 669,267.5 680,268.7 684.3,260.6 		"/>
		<path class="st9" d="M696.3,306.1v-17.6c0,0-10.7,2-27.3-4.9v-16.1c0,0,7.2-1.3,11.4-6.3l-11.4-4.2l2.1-8.4l-9.2-5.3l14.7-25.1
			l1.3-14.8l9.3,6.3l4.2,27l4.9-10.6c0,0,8.8-4.8,12,3.8c2.7,7.3-2,16.1-12,15.6l14.4,29.1l32.2,1.8v29.8H696.3z"/>
		<path class="st12" d="M764.7,189.5c-38.2,2.5-52.9-5.7-64.6-7.2c-3.6,21.6,4.7,14.2-12.9,27.7l4.2,29.5l4.9-13.4
			c4.2-2.3,13.8-0.9,12.4,8.7c-1.5,10.6-12.4,10.7-12.4,10.7l14.4,29.1l21.6,11.8l10.6-10.1C804.8,237.8,764.7,189.5,764.7,189.5
			L764.7,189.5z"/>
		<path class="st10" d="M751.5,306.1c0,0-23.9-14.2-63.2,0l-9.1,17.5l75-3.9L751.5,306.1z"/>
		<path class="st13" d="M681.3,319.7c0,0,31.1-18.5,71.4-8l1.6,8l-47.3,2.5L681.3,319.7L681.3,319.7z"/>
		<polygon class="st14" points="676.6,218 671.1,248.4 661.9,243.1 		"/>
		<path class="st9" d="M510.4,488.8L485,464.6l-0.5,12.4l-27-23.1c0,0,1,35.9,38.3,51.4L510.4,488.8z"/>
		<path class="st9" d="M504,482.8l-13.7-15.7l-13.7-15.7c0,0-4.6,3.5-1.3,9.9l9.2,15.6"/>
		
			<rect x="498.6" y="484.3" transform="matrix(0.753 0.6581 -0.6581 0.753 454.5189 -210.3923)" class="st10" width="17.8" height="31.7"/>
		<path class="st15" d="M686.4,1020.2l-0.1,5.8c0,2.4-2.2,4.3-4.8,4.2l-96.4-0.8c0,0,13.7-22.1,60.4-23.1
			C670,1010.7,686.4,1020.2,686.4,1020.2z"/>
		<path class="st15" d="M830.9,1013l-0.1,8.6c0,2.9-2.7,5.2-5.9,5.2l-13-0.1c-2.1,0-4.1-0.4-6-1l-53-18.4c0,0,14.4-14.7,45.9-5
			L830.9,1013z"/>
		<g>
			<path class="st16" d="M822.2,859.2c-6.4-22.6-11.8-35.4-11.8-35.4l-7.1-210.7l-159.4-18.1l-1.8,172.9l7.6,238.2
				c11.4,11.5,38.5,13.5,38.5,13.5s15.8-98.9,19.6-131c6.1-51.5-6.2-81.5-6.2-81.5l21.9-129.6l29.7,134.7l47.3,200
				c18.4,13.9,32.8,1.9,32.8,1.9S836.9,911,822.2,859.2z"/>
			<polygon class="st16" points="802.7,594.3 643.9,593.3 643.9,594.8 802.7,594.8 			"/>
			<polygon class="st17" points="642.7,594.8 643.9,594.9 643.9,594.8 			"/>
			<polygon class="st17" points="802.7,594.8 643.9,594.8 643.9,594.9 803.3,613.1 			"/>
		</g>
		<path class="st12" d="M687.2,210c0,0-5.9-1.7-22.1,4.3c0,0-1.3-36.4,34.5-53.3l-12.3-0.2c0,0,26.3-18.1,60.7,5.8l-5-12.3
			c0,0,23.2,7.9,21.7,35.3c-16.7,16.8-40.9,13.7-40.9,13.7L687.2,210z"/>
		<path class="st10" d="M784.5,335.6c0,0-41.6-43.4-127.6-8.4l-14.2,267.6h161.1C803.8,594.8,811.5,441.6,784.5,335.6z"/>
		<path class="st18" d="M656.9,327.2c0,0-4.2,82.3-50.6,135.7c-42.5,49-81.7,31.3-81.7,31.3L503.7,518c0,0,36.1,29.2,115.6-1.1
			c63.4-24.1,70.8-107.6,70.8-107.6S700.2,337.9,656.9,327.2z"/>
		<polygon class="st17" points="723.2,676.6 736.1,656 785.4,632.1 755.7,659.3 760,841.3 		"/>
	</g>
</g>
</svg>
