<svg xmlns="http://www.w3.org/2000/svg" xmlns:xlink="http://www.w3.org/1999/xlink" viewBox="0 0 1026.5 860.21"><defs><style>.cls-1{fill:url(#linear-gradient);}.cls-2{fill:#ffedc5;}.cls-3{fill:#f86c77;}.cls-4{fill:#1e5c9a;}.cls-5{fill:#ffd14a;}.cls-6{fill:#62b57f;}.cls-16,.cls-7{fill:#232323;}.cls-7{opacity:0.85;}.cls-8{fill:#ff736b;}.cls-9{fill:#e64337;}.cls-10{fill:#df8a58;}.cls-11{fill:#f85750;}.cls-12{fill:#fff;}.cls-13{fill:#272f42;}.cls-14{fill:none;stroke:#038af2;stroke-linecap:round;stroke-linejoin:round;stroke-width:1.49px;}.cls-15{fill:#f5f5f5;}.cls-17{fill:#f99767;}.cls-18{fill:#038af2;}.cls-19{fill:#2f4b84;}.cls-20{fill:#1a4d81;}</style><linearGradient id="linear-gradient" x1="26.75" y1="458" x2="1053.25" y2="458" gradientUnits="userSpaceOnUse"><stop offset="0" stop-color="#007991"/><stop offset="1" stop-color="#78ffd6"/></linearGradient></defs><title>developer</title><g id="people"><path class="cls-1" d="M936.05,887.51l-814-87.42c-54.16-5.82-95.32-53.17-95.32-109.67V225.58c0-56.5,41.16-103.85,95.32-109.67l814-87.42c62.68-6.73,117.2,44.29,117.2,109.66v639.7C1053.25,843.22,998.73,894.24,936.05,887.51Z" transform="translate(-26.75 -27.89)"/><path class="cls-2" d="M122.35,68.32H712.09a45,45,0,0,1,45,45V672.46a45,45,0,0,1-45,45H122.35a45,45,0,0,1-45-45V113.32A45,45,0,0,1,122.35,68.32Z"/><path class="cls-3" d="M191.83,528a14.83,14.83,0,0,0-26.42-9.3,14.82,14.82,0,1,0-20.62,21l0,0,.38.25c.34.24.69.47,1,.68l19.21,12.59,19.22-12.59c.36-.21.71-.44,1.05-.68l.37-.25,0,0A14.79,14.79,0,0,0,191.83,528Z" transform="translate(-26.75 -27.89)"/><path class="cls-3" d="M257.82,528a14.82,14.82,0,0,0-26.41-9.3,14.82,14.82,0,1,0-20.62,21l0,0,.37.25c.34.24.7.47,1.05.68l19.22,12.59,19.22-12.59c.36-.21.71-.44,1.05-.68l.37-.25,0,0A14.78,14.78,0,0,0,257.82,528Z" transform="translate(-26.75 -27.89)"/><rect class="cls-4" x="115.1" y="170.51" width="281.87" height="262.31" rx="34.28"/><rect class="cls-4" x="432.29" y="170.51" width="281.87" height="53.86"/><rect class="cls-4" x="432.29" y="251.55" width="281.87" height="53.86"/><rect class="cls-4" x="432.29" y="332.58" width="281.87" height="53.86"/><path class="cls-4" d="M734.37,74.07H153.56c-27.32,0-49.46,19-49.46,42.32v38.32H783.83V116.39C783.83,93,761.69,74.07,734.37,74.07Z" transform="translate(-26.75 -27.89)"/><path class="cls-5" d="M698.58,114.39a15.1,15.1,0,1,1-15.1-15.1A15.09,15.09,0,0,1,698.58,114.39Z" transform="translate(-26.75 -27.89)"/><path class="cls-3" d="M645.74,114.39a15.1,15.1,0,1,1-15.09-15.1A15.09,15.09,0,0,1,645.74,114.39Z" transform="translate(-26.75 -27.89)"/><path class="cls-6" d="M749.81,114.39a15.1,15.1,0,1,1-15.09-15.1A15.09,15.09,0,0,1,749.81,114.39Z" transform="translate(-26.75 -27.89)"/><path class="cls-2" d="M376.88,431.37a8.08,8.08,0,0,1-5.75-2.29L182.93,238.34a5.81,5.81,0,0,1,.9-9.08,8.47,8.47,0,0,1,10.61.77l188.2,190.73a5.82,5.82,0,0,1-.9,9.09A8.29,8.29,0,0,1,376.88,431.37Z" transform="translate(-26.75 -27.89)"/><path class="cls-2" d="M188.68,431.37a8.28,8.28,0,0,1-4.85-1.52,5.82,5.82,0,0,1-.9-9.09L371.13,230a8.47,8.47,0,0,1,10.61-.77,5.81,5.81,0,0,1,.9,9.08L194.44,429.08A8.1,8.1,0,0,1,188.68,431.37Z" transform="translate(-26.75 -27.89)"/><rect class="cls-7" x="429.61" y="449.71" width="281.87" height="9.42"/><rect class="cls-7" x="429.61" y="480.5" width="281.87" height="9.42"/><rect class="cls-7" x="283.84" y="480.5" width="113.13" height="9.42"/><rect class="cls-7" x="283.84" y="510.93" width="113.13" height="9.42"/><rect class="cls-7" x="283.84" y="541.36" width="113.13" height="9.42"/><rect class="cls-7" x="283.84" y="571.78" width="113.13" height="9.42"/><rect class="cls-7" x="283.84" y="602.21" width="113.13" height="9.42"/><rect class="cls-7" x="283.84" y="632.63" width="113.13" height="9.42"/><rect class="cls-7" x="283.84" y="663.06" width="113.13" height="9.42"/><rect class="cls-7" x="115.1" y="663.06" width="113.13" height="9.42"/><rect class="cls-7" x="115.1" y="633.08" width="113.13" height="9.42"/><rect class="cls-7" x="115.1" y="603.09" width="113.13" height="9.42"/><rect class="cls-7" x="115.1" y="573.11" width="113.13" height="9.42"/><rect class="cls-7" x="115.1" y="543.13" width="113.13" height="9.42"/><rect class="cls-7" x="429.61" y="511.29" width="281.87" height="9.42"/><rect class="cls-7" x="429.61" y="542.09" width="281.87" height="9.42"/><rect class="cls-7" x="429.61" y="572.88" width="281.87" height="9.42"/><rect class="cls-7" x="429.61" y="603.67" width="281.87" height="9.42"/><rect class="cls-7" x="429.61" y="634.46" width="281.87" height="9.42"/><rect class="cls-7" x="429.61" y="665.25" width="281.87" height="9.42"/><path class="cls-8" d="M888.16,340.88s-90,5.5-134.36-48.07L741,311.52s49.68,75,159,82.84C900,394.36,907.24,365.22,888.16,340.88Z" transform="translate(-26.75 -27.89)"/><path class="cls-9" d="M775.27,346.69a218.15,218.15,0,0,0,54.35,31.62l39.63-11.6-1.08-26.06C851.59,339.7,827,336.55,803,327Z" transform="translate(-26.75 -27.89)"/><path class="cls-10" d="M745.13,287.67,731.7,267.56l-44.54-16.49s-5.6,8.36,26,19.15L707.71,279l5.4,15.86,17.79,5.1,2.91,4.72Z" transform="translate(-26.75 -27.89)"/><polygon class="cls-11" points="700.74 274.98 722.06 256.59 732.26 267.29 711.26 286.25 700.74 274.98"/><path class="cls-12" d="M738.94,374.14l42,76.92-71.6.24-40.59-74.8a3.84,3.84,0,0,1,3.36-5.67l61-.13A6.61,6.61,0,0,1,738.94,374.14Z" transform="translate(-26.75 -27.89)"/><polygon class="cls-13" points="708.23 348.84 745.53 417.17 684.65 417.38 647.53 348.97 708.23 348.84"/><line class="cls-14" x1="655.83" y1="353.49" x2="706.17" y2="353.49"/><line class="cls-14" x1="658.49" y1="358.22" x2="675.4" y2="358.22"/><line class="cls-14" x1="683.17" y1="358.22" x2="690.12" y2="358.22"/><line class="cls-14" x1="693.46" y1="358.22" x2="700.41" y2="358.22"/><line class="cls-14" x1="661.14" y1="362.96" x2="711.48" y2="362.96"/><line class="cls-14" x1="663.8" y1="367.69" x2="714.14" y2="367.69"/><line class="cls-14" x1="666.45" y1="372.43" x2="686.7" y2="372.43"/><line class="cls-14" x1="669.11" y1="377.17" x2="678" y2="377.17"/><line class="cls-14" x1="683.25" y1="377.17" x2="692.14" y2="377.17"/><line class="cls-14" x1="696.93" y1="377.17" x2="705.83" y2="377.17"/><line class="cls-14" x1="710.62" y1="377.17" x2="719.51" y2="377.17"/><line class="cls-14" x1="671.76" y1="381.9" x2="722.1" y2="381.9"/><line class="cls-14" x1="699.97" y1="386.64" x2="724.76" y2="386.64"/><line class="cls-14" x1="677.07" y1="391.37" x2="727.41" y2="391.37"/><line class="cls-14" x1="679.73" y1="396.11" x2="730.07" y2="396.11"/><line class="cls-14" x1="682.38" y1="400.84" x2="732.72" y2="400.84"/><line class="cls-14" x1="685.04" y1="405.58" x2="735.38" y2="405.58"/><line class="cls-14" x1="687.69" y1="410.31" x2="738.03" y2="410.31"/><line class="cls-14" x1="703.52" y1="372.43" x2="716.11" y2="372.43"/><path class="cls-13" d="M975.9,810c-.19,18.13-49.5,32.42-110.13,31.9s-109.62-15.64-109.42-33.78,49.49-32.42,110.12-31.9S976.09,791.88,975.9,810Z" transform="translate(-26.75 -27.89)"/><polygon class="cls-15" points="811.75 265.3 810.55 273.16 817.92 273.96 820.75 268.58 811.75 265.3"/><path class="cls-10" d="M855.58,326.92v-11.8s-7.13,1.32-18.28-3.27v-10.8s4.81-.85,7.64-4.24L837.3,294l1.42-5.66-6.16-3.55,9.83-16.8.85-9.89,6.22,4.24,2.83,18.09,3.29-7.07s5.86-3.19,8,2.55c1.84,4.88-1.32,10.74-8,10.46l9.63,19.45L886.77,307v19.93Z" transform="translate(-26.75 -27.89)"/><path class="cls-16" d="M901.3,248.89c-25.55,1.7-35.36-3.84-43.2-4.84-2.42,14.48,3.16,9.5-8.6,18.56l2.8,19.73,3.28-9c2.82-1.56,9.24-.58,8.33,5.85-1,7.12-8.33,7.15-8.33,7.15l9.63,19.46,14.47,7.91,7.09-6.73c41.4-25.81,14.53-58.1,14.53-58.1Z" transform="translate(-26.75 -27.89)"/><path class="cls-11" d="M892.52,326.92s-16-9.47-42.26,0l-6.11,11.68,50.2-2.6Z" transform="translate(-26.75 -27.89)"/><path class="cls-9" d="M845.52,336s20.82-12.41,47.75-5.33l1.08,5.34-31.66,1.64L845.52,336Z" transform="translate(-26.75 -27.89)"/><polygon class="cls-17" points="815.64 240.09 811.97 260.44 805.81 256.88 815.64 240.09"/><path class="cls-10" d="M731.15,449.18l-17-16.24-.34,8.29-18.08-15.46a40.63,40.63,0,0,0,25.6,34.42Z" transform="translate(-26.75 -27.89)"/><path class="cls-10" d="M726.89,445.12l-9.19-10.49-9.19-10.48s-3.06,2.36-.88,6.62l6.17,10.46" transform="translate(-26.75 -27.89)"/><rect class="cls-11" x="723.27" y="446.15" width="11.9" height="21.21" transform="translate(453.98 -394.93) rotate(41.15)"/><path class="cls-11" d="M848.91,804.69l0,3.86a3.06,3.06,0,0,1-3.23,2.85l-64.48-.55s9.13-14.79,40.38-15.47A92.71,92.71,0,0,1,848.91,804.69Z" transform="translate(-26.75 -27.89)"/><path class="cls-11" d="M945.59,799.87l-.06,5.74a3.74,3.74,0,0,1-3.95,3.48l-8.72-.07a12.86,12.86,0,0,1-4.05-.7L893.37,796s9.64-9.84,30.74-3.35Z" transform="translate(-26.75 -27.89)"/><path class="cls-4" d="M939.81,697a218.38,218.38,0,0,0-7.9-23.68l-4.74-141L820.52,520.17l-1.21,115.68,5.1,159.35c7.61,7.69,25.78,9,25.78,9s10.55-66.14,13.11-87.62c4.1-34.42-4.17-54.53-4.17-54.53l14.66-86.7,19.88,90.11,31.64,133.82c12.28,9.28,22,1.29,22,1.29S949.61,731.67,939.81,697Z" transform="translate(-26.75 -27.89)"/><polygon class="cls-18" points="900 491.87 793.78 491.19 793.77 492.18 900.01 492.18 900 491.87"/><polygon class="cls-19" points="792.93 492.18 793.77 492.27 793.77 492.18 792.93 492.18"/><polygon class="cls-19" points="900.01 492.18 793.77 492.18 793.77 492.27 900.42 504.41 900.01 492.18"/><path class="cls-16" d="M849.5,262.61s-4-1.13-14.8,2.86c0,0-.89-24.34,23.06-35.67l-8.26-.13s17.57-12.09,40.63,3.87l-3.36-8.26s15.51,5.26,14.53,23.61c-11.17,11.26-27.37,9.2-27.37,9.2Z" transform="translate(-26.75 -27.89)"/><path class="cls-11" d="M914.57,346.64s-27.8-29-85.35-5.64l-9.54,179.07H927.49S932.67,417.6,914.57,346.64Z" transform="translate(-26.75 -27.89)"/><path class="cls-9" d="M829.22,341s-2.83,55-33.86,90.78c-28.44,32.75-54.68,20.91-54.68,20.91l-14,16s24.16,19.54,77.37-.72c42.44-16.16,47.36-72,47.36-72S858.18,348.2,829.22,341Z" transform="translate(-26.75 -27.89)"/><polygon class="cls-20" points="846.83 546.88 855.45 533.1 888.45 517.13 868.53 535.36 871.45 657.09 846.83 546.88"/></g></svg>