<svg xmlns="http://www.w3.org/2000/svg" viewBox="0 0 622.37 300"><defs><style>.cls-1{fill:#0695cf;}.cls-2{fill:#ff9519;}.cls-3{fill:#fff;}</style></defs><title>logo-cgf</title><g id="Layer_2" data-name="Layer 2"><g id="marca"><polygon class="cls-1" points="102.43 60 102.43 60 240 60 240 197.57 300 257.57 300 0 42.43 0 42.43 0 102.43 60"/><polygon class="cls-2" points="197.57 240 197.57 240 60 240 60 102.43 0 42.43 0 300 257.57 300 257.57 300 197.57 240"/><path class="cls-3" d="M407,197.64q-19.79,0-33.38-13.2T360,149.9q0-21.22,13.78-34.54A45.67,45.67,0,0,1,406.7,102Q424.3,102,435,111a40.1,40.1,0,0,1,13.78,21.47l-16.82,5.31a25,25,0,0,0-8.15-13.13q-6.21-5.37-17.08-5.37a27.8,27.8,0,0,0-19.73,8q-8.48,8-8.47,22.64,0,14,8.35,22.12A27.7,27.7,0,0,0,407,180.17q10.74,0,17.15-5.56a27.34,27.34,0,0,0,8.6-13.2l16.69,5.05a40.8,40.8,0,0,1-4.6,10.87,45.29,45.29,0,0,1-8.21,10,37.82,37.82,0,0,1-12.74,7.5A48.32,48.32,0,0,1,407,197.64Z"/><path class="cls-3" d="M546.43,195.7H531.94l-1.17-10.48a26.6,26.6,0,0,1-10.41,8.86,36,36,0,0,1-16.62,3.56q-19.15,0-32.48-13.07T457.94,149.9q0-21.48,13.78-34.67A46.22,46.22,0,0,1,504.9,102q16.82,0,27.49,8.15a40.06,40.06,0,0,1,14.43,20l-17.08,6.08A25.06,25.06,0,0,0,521.4,124q-6.28-5.23-16.5-5.24a28.73,28.73,0,0,0-20.25,8q-8.59,8-8.6,23.16,0,14.88,8.34,23.16A28.16,28.16,0,0,0,505,181.34q11.38,0,17.46-5.76t7.12-12.1h-29V148h45.8Z"/><path class="cls-3" d="M582.39,195.7h-18V104h58v17H582.26v22.64H618V160H582.39Z"/></g></g></svg>