<svg xmlns="http://www.w3.org/2000/svg" viewBox="0 0 633.92 300"><defs><style>.cls-1{fill:#0695cf;}.cls-2{fill:#ff9519;}.cls-3{fill:#fff;}</style></defs><title>logo-cgf</title><g id="Layer_2" data-name="Layer 2"><g id="marca"><polygon class="cls-1" points="102.43 60 102.43 60 240 60 240 197.57 300 257.57 300 0 42.43 0 42.43 0 102.43 60"/><polygon class="cls-2" points="197.57 240 197.57 240 60 240 60 102.43 0 42.43 0 300 257.57 300 257.57 300 197.57 240"/><path class="cls-3" d="M409.42,199.82q-20.64,0-34.79-13.75t-14.16-36q0-22.11,14.36-36a47.63,47.63,0,0,1,34.32-13.89q18.33,0,29.46,9.3A41.89,41.89,0,0,1,453,131.86l-17.53,5.53a26.08,26.08,0,0,0-8.5-13.68q-6.46-5.59-17.79-5.6a29,29,0,0,0-20.57,8.36q-8.83,8.37-8.83,23.6,0,14.56,8.7,23.05a28.89,28.89,0,0,0,21,8.5q11.19,0,17.86-5.8a28.39,28.39,0,0,0,9-13.75l17.39,5.26a42.69,42.69,0,0,1-4.78,11.32A47.11,47.11,0,0,1,440.29,189,39.57,39.57,0,0,1,427,196.86,50.53,50.53,0,0,1,409.42,199.82Z"/><path class="cls-3" d="M554.77,197.8h-15.1l-1.21-10.92a27.79,27.79,0,0,1-10.86,9.23q-7.22,3.72-17.33,3.71-19.95,0-33.84-13.62t-13.89-36.13q0-22.38,14.36-36.14a48.19,48.19,0,0,1,34.59-13.75q17.52,0,28.65,8.49a41.68,41.68,0,0,1,15,20.9l-17.79,6.34a26.16,26.16,0,0,0-8.7-12.88q-6.54-5.46-17.19-5.46a29.93,29.93,0,0,0-21.1,8.36q-9,8.37-9,24.14,0,15.51,8.7,24.13a29.28,29.28,0,0,0,21.5,8.63q11.86,0,18.21-6t7.41-12.6H507V148h47.73Z"/><path class="cls-3" d="M592.25,197.8H573.51V102.2h60.41v17.66h-41.8v23.6h37.21v17.12H592.25Z"/></g></g></svg>