<svg width="770" height="263" viewBox="0 0 770 263" fill="none" xmlns="http://www.w3.org/2000/svg">
<rect width="770" height="262.754" fill="white"/>
<path d="M382.016 162.99C375.776 162.99 370.316 161.64 365.636 158.94C360.956 156.18 357.326 152.43 354.746 147.69C352.226 142.89 350.966 137.46 350.966 131.4C350.966 126.84 351.716 122.64 353.216 118.8C354.776 114.9 356.936 111.54 359.696 108.72C362.516 105.9 365.816 103.71 369.596 102.15C373.376 100.59 377.516 99.81 382.016 99.81C389.036 99.81 394.796 101.28 399.296 104.22C403.796 107.16 407.396 111.21 410.096 116.37L400.196 119.7C397.676 116.04 394.916 113.49 391.916 112.05C388.976 110.61 385.676 109.89 382.016 109.89C378.116 109.89 374.636 110.82 371.576 112.68C368.516 114.48 366.086 117 364.286 120.24C362.486 123.48 361.586 127.2 361.586 131.4C361.586 135.6 362.486 139.32 364.286 142.56C366.086 145.8 368.516 148.35 371.576 150.21C374.636 152.01 378.116 152.91 382.016 152.91C385.676 152.91 388.976 152.19 391.916 150.75C394.916 149.31 397.676 146.76 400.196 143.1L410.096 146.43C407.396 151.59 403.796 155.64 399.296 158.58C394.796 161.52 389.036 162.99 382.016 162.99ZM445.473 162.99C439.233 162.99 433.773 161.64 429.093 158.94C424.473 156.18 420.873 152.43 418.293 147.69C415.713 142.95 414.423 137.58 414.423 131.58C414.423 126.96 415.173 122.73 416.673 118.89C418.233 114.99 420.393 111.63 423.153 108.81C425.973 105.93 429.273 103.71 433.053 102.15C436.833 100.59 440.973 99.81 445.473 99.81C452.433 99.81 458.163 101.28 462.663 104.22C467.163 107.1 470.763 111.06 473.463 116.1L463.563 119.43C461.043 115.83 458.283 113.34 455.283 111.96C452.343 110.58 449.073 109.89 445.473 109.89C441.573 109.89 438.093 110.82 435.033 112.68C431.973 114.48 429.543 117 427.743 120.24C425.943 123.48 425.043 127.26 425.043 131.58C425.043 135.72 425.943 139.41 427.743 142.65C429.543 145.89 431.973 148.44 435.033 150.3C438.093 152.16 441.543 153.09 445.383 153.09C449.103 153.09 452.463 152.31 455.463 150.75C458.463 149.13 460.833 146.94 462.573 144.18C464.373 141.42 465.303 138.24 465.363 134.64L467.523 139.59H444.753V129.96H474.723C474.903 130.68 475.053 131.49 475.173 132.39C475.293 133.29 475.353 134.16 475.353 135C475.353 138.96 474.573 142.65 473.013 146.07C471.513 149.43 469.383 152.4 466.623 154.98C463.923 157.5 460.773 159.48 457.173 160.92C453.573 162.3 449.673 162.99 445.473 162.99ZM491.792 136.62V126.72H516.002V136.62H491.792ZM494.312 162H483.872V100.71H521.042V110.61H491.342L494.312 106.83V162Z" fill="#464655"/>
<path d="M337.304 113.209V152.52C337.304 156.568 336.381 160.403 334.717 163.822L320.19 149.294V113.209C320.19 108.309 316.213 104.332 311.313 104.332H275.227L260.7 89.8044C264.119 88.1507 267.954 87.2174 272.001 87.2174H311.313C325.648 87.2174 337.304 98.8739 337.304 113.209Z" fill="#0066CC"/>
<path d="M322.614 175.935C319.196 177.588 315.361 178.522 311.313 178.522H272.001C257.667 178.522 246 166.855 246 152.52V113.209C246 109.161 246.933 105.326 248.597 101.907L263.125 116.445V152.52C263.125 157.43 267.101 161.397 272.001 161.397H308.087L322.614 175.935Z" fill="#FF6611"/>
</svg>
