<?xml version="1.0" encoding="utf-8"?>
<!-- Generator: Adobe Illustrator 23.0.1, SVG Export Plug-In . SVG Version: 6.00 Build 0)  -->
<svg version="1.1" id="Capa_1" xmlns="http://www.w3.org/2000/svg" xmlns:xlink="http://www.w3.org/1999/xlink" x="0px" y="0px"
	 viewBox="0 0 56 56" style="enable-background:new 0 0 56 56;" xml:space="preserve">
<style type="text/css">
	.st0{fill:#E5E5E5;}
</style>
<g>
	<path class="st0" d="M50,16H6c-3.3,0-6-2.7-6-6l0-4c0-3.3,2.7-6,6-6l44,0c3.3,0,6,2.7,6,6v4C56,13.3,53.3,16,50,16z"/>
	<path class="st0" d="M50,36H6c-3.3,0-6-2.7-6-6l0-4c0-3.3,2.7-6,6-6h44c3.3,0,6,2.7,6,6v4C56,33.3,53.3,36,50,36z"/>
	<path class="st0" d="M50,56H6c-3.3,0-6-2.7-6-6l0-4c0-3.3,2.7-6,6-6h44c3.3,0,6,2.7,6,6v4C56,53.3,53.3,56,50,56z"/>
</g>
</svg>
