<?xml version="1.0" encoding="utf-8"?>
<!-- Generator: Adobe Illustrator 23.0.1, SVG Export Plug-In . SVG Version: 6.00 Build 0)  -->
<svg version="1.1" id="Capa_1" xmlns="http://www.w3.org/2000/svg" xmlns:xlink="http://www.w3.org/1999/xlink" x="0px" y="0px"
	 viewBox="0 0 56 56" style="enable-background:new 0 0 56 56;" xml:space="preserve">
<style type="text/css">
	.st0{fill:#E5E5E5;}
</style>
<g>
	<path class="st0" d="M8,40c-4.4,0-8,3.6-8,8s3.6,8,8,8s8-3.6,8-8S12.4,40,8,40z"/>
	<path class="st0" d="M28,40c-4.4,0-8,3.6-8,8s3.6,8,8,8s8-3.6,8-8S32.4,40,28,40z"/>
	<path class="st0" d="M48,40c-4.4,0-8,3.6-8,8s3.6,8,8,8s8-3.6,8-8S52.4,40,48,40z"/>
	<path class="st0" d="M8,20c-4.4,0-8,3.6-8,8s3.6,8,8,8s8-3.6,8-8S12.4,20,8,20z"/>
	<path class="st0" d="M28,20c-4.4,0-8,3.6-8,8s3.6,8,8,8s8-3.6,8-8S32.4,20,28,20z"/>
	<path class="st0" d="M48,20c-4.4,0-8,3.6-8,8s3.6,8,8,8s8-3.6,8-8S52.4,20,48,20z"/>
	<path class="st0" d="M8,0C3.6,0,0,3.6,0,8s3.6,8,8,8s8-3.6,8-8S12.4,0,8,0z"/>
	<path class="st0" d="M28,0c-4.4,0-8,3.6-8,8s3.6,8,8,8s8-3.6,8-8S32.4,0,28,0z"/>
	<path class="st0" d="M48,16c4.4,0,8-3.6,8-8s-3.6-8-8-8s-8,3.6-8,8S43.6,16,48,16z"/>
</g>
</svg>
