<?xml version="1.0" encoding="utf-8"?>
<!-- Generator: Adobe Illustrator 23.0.1, SVG Export Plug-In . SVG Version: 6.00 Build 0)  -->
<svg version="1.1" id="Capa_1" xmlns="http://www.w3.org/2000/svg" xmlns:xlink="http://www.w3.org/1999/xlink" x="0px" y="0px"
	 viewBox="0 0 56 56" style="enable-background:new 0 0 56 56;" xml:space="preserve">
<style type="text/css">
	.st0{fill:#E5E5E5;}
</style>
<g>
	<path class="st0" d="M52,8H4C1.8,8,0,6.2,0,4v0c0-2.2,1.8-4,4-4l48,0c2.2,0,4,1.8,4,4v0C56,6.2,54.2,8,52,8z"/>
	<path class="st0" d="M52,56H4c-2.2,0-4-1.8-4-4v0c0-2.2,1.8-4,4-4h48c2.2,0,4,1.8,4,4v0C56,54.2,54.2,56,52,56z"/>
	<path class="st0" d="M52,32H4c-2.2,0-4-1.8-4-4v0c0-2.2,1.8-4,4-4h48c2.2,0,4,1.8,4,4v0C56,30.2,54.2,32,52,32z"/>
</g>
</svg>
